<svg xmlns="http://www.w3.org/2000/svg" width="2500" height="742" preserveAspectRatio="xMinYMin meet" viewBox="0 0 256 76" id="apache"><defs><linearGradient id="a" x1="48.377%" x2="51.439%" y1="-14.475%" y2="108.205%"><stop offset="0%" stop-color="#6A3894"></stop><stop offset="10.58%" stop-color="#8A2F83"></stop><stop offset="26.53%" stop-color="#B4256C"></stop><stop offset="40.92%" stop-color="#D31C5D"></stop><stop offset="53.09%" stop-color="#E51E54"></stop><stop offset="61.58%" stop-color="#EC1E4F"></stop><stop offset="100%" stop-color="#F8E47F"></stop></linearGradient><linearGradient id="b" x1="49.461%" x2="52.042%" y1="25.137%" y2="134.885%"><stop offset="0%" stop-color="#6A3894"></stop><stop offset="10.58%" stop-color="#8A2F83"></stop><stop offset="26.53%" stop-color="#B4256C"></stop><stop offset="40.92%" stop-color="#D31C5D"></stop><stop offset="53.09%" stop-color="#E51E54"></stop><stop offset="61.58%" stop-color="#EC1E4F"></stop><stop offset="100%" stop-color="#F8E47F"></stop></linearGradient><linearGradient id="c" x1="48.221%" x2="51.662%" y1="-15.768%" y2="108.575%"><stop offset="0%" stop-color="#6A3894"></stop><stop offset="10.58%" stop-color="#8A2F83"></stop><stop offset="26.53%" stop-color="#B4256C"></stop><stop offset="40.92%" stop-color="#D31C5D"></stop><stop offset="53.09%" stop-color="#E51E54"></stop><stop offset="61.58%" stop-color="#EC1E4F"></stop><stop offset="100%" stop-color="#F8E47F"></stop></linearGradient><linearGradient id="d" x1="48.846%" x2="52.552%" y1="14.371%" y2="133.906%"><stop offset="0%" stop-color="#6A3894"></stop><stop offset="10.58%" stop-color="#8A2F83"></stop><stop offset="26.53%" stop-color="#B4256C"></stop><stop offset="40.92%" stop-color="#D31C5D"></stop><stop offset="53.09%" stop-color="#E51E54"></stop><stop offset="61.58%" stop-color="#EC1E4F"></stop><stop offset="100%" stop-color="#F8E47F"></stop></linearGradient><linearGradient id="e" x1="48.477%" x2="51.653%" y1="-17.018%" y2="108.531%"><stop offset="0%" stop-color="#6A3894"></stop><stop offset="10.58%" stop-color="#8A2F83"></stop><stop offset="26.53%" stop-color="#B4256C"></stop><stop offset="40.92%" stop-color="#D31C5D"></stop><stop offset="53.09%" stop-color="#E51E54"></stop><stop offset="61.58%" stop-color="#EC1E4F"></stop><stop offset="100%" stop-color="#F8E47F"></stop></linearGradient><linearGradient id="f" x1="48.957%" x2="52.141%" y1="4.908%" y2="155.044%"><stop offset="0%" stop-color="#6A3894"></stop><stop offset="10.58%" stop-color="#8A2F83"></stop><stop offset="26.53%" stop-color="#B4256C"></stop><stop offset="40.92%" stop-color="#D31C5D"></stop><stop offset="53.09%" stop-color="#E51E54"></stop><stop offset="61.58%" stop-color="#EC1E4F"></stop><stop offset="100%" stop-color="#F8E47F"></stop></linearGradient><linearGradient id="g" x1="48.747%" x2="51.571%" y1="-20.569%" y2="111.805%"><stop offset="0%" stop-color="#6A3894"></stop><stop offset="10.58%" stop-color="#8A2F83"></stop><stop offset="26.53%" stop-color="#B4256C"></stop><stop offset="40.92%" stop-color="#D31C5D"></stop><stop offset="53.09%" stop-color="#E51E54"></stop><stop offset="61.58%" stop-color="#EC1E4F"></stop><stop offset="100%" stop-color="#F8E47F"></stop></linearGradient><linearGradient id="h" x1="48.901%" x2="51.964%" y1="-8.264%" y2="139.507%"><stop offset="0%" stop-color="#6A3894"></stop><stop offset="10.58%" stop-color="#8A2F83"></stop><stop offset="26.53%" stop-color="#B4256C"></stop><stop offset="40.92%" stop-color="#D31C5D"></stop><stop offset="53.09%" stop-color="#E51E54"></stop><stop offset="61.58%" stop-color="#EC1E4F"></stop><stop offset="100%" stop-color="#F8E47F"></stop></linearGradient><linearGradient id="i" x1="48.878%" x2="49.752%" y1="-40.568%" y2="35.508%"><stop offset="0%" stop-color="#F8E47F"></stop><stop offset="10.57%" stop-color="#F7DB7C"></stop><stop offset="34.93%" stop-color="#F3C87B"></stop><stop offset="51.98%" stop-color="#F2C179"></stop><stop offset="70.96%" stop-color="#F6D17B"></stop><stop offset="100%" stop-color="#F8E47F"></stop></linearGradient><linearGradient id="j" x1="61.295%" x2="47.167%" y1="-95.754%" y2="83.377%"><stop offset="0%" stop-color="#F8E47F"></stop><stop offset="10.57%" stop-color="#F7DB7C"></stop><stop offset="34.93%" stop-color="#F3C87B"></stop><stop offset="51.98%" stop-color="#F2C179"></stop><stop offset="70.96%" stop-color="#F6D17B"></stop><stop offset="100%" stop-color="#F8E47F"></stop></linearGradient><linearGradient id="k" x1="48.763%" x2="49.829%" y1="-62.555%" y2="31.517%"><stop offset="0%" stop-color="#F8E47F"></stop><stop offset="10.57%" stop-color="#F7DB7C"></stop><stop offset="34.93%" stop-color="#F3C87B"></stop><stop offset="51.98%" stop-color="#F2C179"></stop><stop offset="70.96%" stop-color="#F6D17B"></stop><stop offset="100%" stop-color="#F8E47F"></stop></linearGradient><linearGradient id="l" x1="61.892%" x2="44.032%" y1="-134.186%" y2="133.252%"><stop offset="0%" stop-color="#F8E47F"></stop><stop offset="10.57%" stop-color="#F7DB7C"></stop><stop offset="34.93%" stop-color="#F3C87B"></stop><stop offset="51.98%" stop-color="#F2C179"></stop><stop offset="70.96%" stop-color="#F6D17B"></stop><stop offset="100%" stop-color="#F8E47F"></stop></linearGradient><linearGradient id="m" x1="47.962%" x2="49.584%" y1="-127.501%" y2="28.726%"><stop offset="0%" stop-color="#F8E47F"></stop><stop offset="10.57%" stop-color="#F7DB7C"></stop><stop offset="34.93%" stop-color="#F3C87B"></stop><stop offset="51.98%" stop-color="#F2C179"></stop><stop offset="70.96%" stop-color="#F6D17B"></stop><stop offset="100%" stop-color="#F8E47F"></stop></linearGradient><linearGradient id="n" x1="48.008%" x2="49.998%" y1="-165.229%" y2="24.96%"><stop offset="0%" stop-color="#F8E47F"></stop><stop offset="10.57%" stop-color="#F7DB7C"></stop><stop offset="34.93%" stop-color="#F3C87B"></stop><stop offset="51.98%" stop-color="#F2C179"></stop><stop offset="70.96%" stop-color="#F6D17B"></stop><stop offset="100%" stop-color="#F8E47F"></stop></linearGradient><linearGradient id="o" x1="49.42%" x2="51.331%" y1="-96.09%" y2="148.654%"><stop offset="0%" stop-color="#F8E47F"></stop><stop offset="10.57%" stop-color="#F7DB7C"></stop><stop offset="34.93%" stop-color="#F3C87B"></stop><stop offset="51.98%" stop-color="#F2C179"></stop><stop offset="70.96%" stop-color="#F6D17B"></stop><stop offset="100%" stop-color="#F8E47F"></stop></linearGradient><linearGradient id="p" x1="47.285%" x2="50.255%" y1="-269.553%" y2="94.973%"><stop offset="0%" stop-color="#F8E47F"></stop><stop offset="10.57%" stop-color="#F7DB7C"></stop><stop offset="34.93%" stop-color="#F3C87B"></stop><stop offset="51.98%" stop-color="#F2C179"></stop><stop offset="70.96%" stop-color="#F6D17B"></stop><stop offset="100%" stop-color="#F8E47F"></stop></linearGradient><linearGradient id="q" x1="36.812%" x2="63.32%" y1="136.87%" y2="-33.291%"><stop offset="0%" stop-color="#6A3894"></stop><stop offset="10.58%" stop-color="#8A2F83"></stop><stop offset="26.53%" stop-color="#B4256C"></stop><stop offset="40.92%" stop-color="#D31C5D"></stop><stop offset="53.09%" stop-color="#E51E54"></stop><stop offset="61.58%" stop-color="#EC1E4F"></stop><stop offset="100%" stop-color="#F8E47F"></stop></linearGradient><linearGradient id="r" x1="51.268%" x2="111.195%" y1="47.797%" y2="-92.982%"><stop offset="0%" stop-color="#6A3894"></stop><stop offset="10.58%" stop-color="#8A2F83"></stop><stop offset="26.53%" stop-color="#B4256C"></stop><stop offset="40.92%" stop-color="#D31C5D"></stop><stop offset="53.09%" stop-color="#E51E54"></stop><stop offset="61.58%" stop-color="#EC1E4F"></stop><stop offset="100%" stop-color="#F8E47F"></stop></linearGradient><linearGradient id="s" x1="28.861%" x2="66.465%" y1="154.57%" y2="-25.939%"><stop offset="0%" stop-color="#6A3894"></stop><stop offset="10.58%" stop-color="#8A2F83"></stop><stop offset="26.53%" stop-color="#B4256C"></stop><stop offset="40.92%" stop-color="#D31C5D"></stop><stop offset="53.09%" stop-color="#E51E54"></stop><stop offset="61.58%" stop-color="#EC1E4F"></stop><stop offset="100%" stop-color="#F8E47F"></stop></linearGradient><linearGradient id="t" x1="39.406%" x2="98.6%" y1="88.523%" y2="-60.132%"><stop offset="0%" stop-color="#6A3894"></stop><stop offset="10.58%" stop-color="#8A2F83"></stop><stop offset="26.53%" stop-color="#B4256C"></stop><stop offset="40.92%" stop-color="#D31C5D"></stop><stop offset="53.09%" stop-color="#E51E54"></stop><stop offset="61.58%" stop-color="#EC1E4F"></stop><stop offset="100%" stop-color="#F8E47F"></stop></linearGradient><linearGradient id="u" x1="30.207%" x2="63.342%" y1="198.316%" y2="-44.553%"><stop offset="0%" stop-color="#6A3894"></stop><stop offset="10.58%" stop-color="#8A2F83"></stop><stop offset="26.53%" stop-color="#B4256C"></stop><stop offset="40.92%" stop-color="#D31C5D"></stop><stop offset="53.09%" stop-color="#E51E54"></stop><stop offset="61.58%" stop-color="#EC1E4F"></stop><stop offset="100%" stop-color="#F8E47F"></stop></linearGradient><linearGradient id="v" x1="23.353%" x2="83.033%" y1="145.501%" y2="-60.884%"><stop offset="0%" stop-color="#6A3894"></stop><stop offset="10.58%" stop-color="#8A2F83"></stop><stop offset="26.53%" stop-color="#B4256C"></stop><stop offset="40.92%" stop-color="#D31C5D"></stop><stop offset="53.09%" stop-color="#E51E54"></stop><stop offset="61.58%" stop-color="#EC1E4F"></stop><stop offset="100%" stop-color="#F8E47F"></stop></linearGradient><linearGradient id="w" x1="27.956%" x2="59.913%" y1="228.377%" y2="-21.3%"><stop offset="0%" stop-color="#6A3894"></stop><stop offset="10.58%" stop-color="#8A2F83"></stop><stop offset="26.53%" stop-color="#B4256C"></stop><stop offset="40.92%" stop-color="#D31C5D"></stop><stop offset="53.09%" stop-color="#E51E54"></stop><stop offset="61.58%" stop-color="#EC1E4F"></stop><stop offset="100%" stop-color="#F8E47F"></stop></linearGradient><linearGradient id="x" x1="50.047%" x2="50.949%" y1="55.245%" y2="155.804%"><stop offset="0%" stop-color="#F8E47F"></stop><stop offset="10.57%" stop-color="#F7DB7C"></stop><stop offset="34.93%" stop-color="#F3C87B"></stop><stop offset="51.98%" stop-color="#F2C179"></stop><stop offset="70.96%" stop-color="#F6D17B"></stop><stop offset="100%" stop-color="#F8E47F"></stop></linearGradient><linearGradient id="y" x1="52.935%" x2="41.003%" y1="4.416%" y2="204.29%"><stop offset="0%" stop-color="#F8E47F"></stop><stop offset="10.57%" stop-color="#F7DB7C"></stop><stop offset="34.93%" stop-color="#F3C87B"></stop><stop offset="51.98%" stop-color="#F2C179"></stop><stop offset="70.96%" stop-color="#F6D17B"></stop><stop offset="100%" stop-color="#F8E47F"></stop></linearGradient><linearGradient id="z" x1="54.558%" x2="39.844%" y1="-13.072%" y2="224.278%"><stop offset="0%" stop-color="#F8E47F"></stop><stop offset="10.57%" stop-color="#F7DB7C"></stop><stop offset="34.93%" stop-color="#F3C87B"></stop><stop offset="51.98%" stop-color="#F2C179"></stop><stop offset="70.96%" stop-color="#F6D17B"></stop><stop offset="100%" stop-color="#F8E47F"></stop></linearGradient><linearGradient id="A" x1="58.244%" x2="35.884%" y1="-110.719%" y2="341.376%"><stop offset="0%" stop-color="#F8E47F"></stop><stop offset="10.57%" stop-color="#F7DB7C"></stop><stop offset="34.93%" stop-color="#F3C87B"></stop><stop offset="51.98%" stop-color="#F2C179"></stop><stop offset="70.96%" stop-color="#F6D17B"></stop><stop offset="100%" stop-color="#F8E47F"></stop></linearGradient><linearGradient id="B" x1="48.739%" x2="50.613%" y1="-111.609%" y2="138.354%"><stop offset="0%" stop-color="#F8E47F"></stop><stop offset="10.57%" stop-color="#F7DB7C"></stop><stop offset="34.93%" stop-color="#F3C87B"></stop><stop offset="51.98%" stop-color="#F2C179"></stop><stop offset="70.96%" stop-color="#F6D17B"></stop><stop offset="100%" stop-color="#F8E47F"></stop></linearGradient><linearGradient id="C" x1="49.45%" x2="50.598%" y1="4.043%" y2="145.152%"><stop offset="0%" stop-color="#F8E47F"></stop><stop offset="10.57%" stop-color="#F7DB7C"></stop><stop offset="34.93%" stop-color="#F3C87B"></stop><stop offset="51.98%" stop-color="#F2C179"></stop><stop offset="70.96%" stop-color="#F6D17B"></stop><stop offset="100%" stop-color="#F8E47F"></stop></linearGradient><linearGradient id="D" x1="106.724%" x2=".727%" y1="8.252%" y2="121.341%"><stop offset="0%" stop-color="#7F3996"></stop><stop offset="7.1%" stop-color="#9C2F82"></stop><stop offset="15.99%" stop-color="#B92770"></stop><stop offset="25.42%" stop-color="#D02162"></stop><stop offset="35.54%" stop-color="#DF1E57"></stop><stop offset="46.82%" stop-color="#E91F52"></stop><stop offset="61.58%" stop-color="#EC1E4F"></stop><stop offset="100%" stop-color="#F8E47F"></stop></linearGradient><linearGradient id="E" x1="99.542%" x2="9.968%" y1="11.089%" y2="104.952%"><stop offset="0%" stop-color="#7F3996"></stop><stop offset="7.1%" stop-color="#9C2F82"></stop><stop offset="15.99%" stop-color="#B92770"></stop><stop offset="25.42%" stop-color="#D02162"></stop><stop offset="35.54%" stop-color="#DF1E57"></stop><stop offset="46.82%" stop-color="#E91F52"></stop><stop offset="61.58%" stop-color="#EC1E4F"></stop><stop offset="100%" stop-color="#F8E47F"></stop></linearGradient><linearGradient id="F" x1="87.196%" x2="13.244%" y1="12.426%" y2="100.149%"><stop offset="0%" stop-color="#7F3996"></stop><stop offset="7.1%" stop-color="#9C2F82"></stop><stop offset="15.99%" stop-color="#B92770"></stop><stop offset="25.42%" stop-color="#D02162"></stop><stop offset="35.54%" stop-color="#DF1E57"></stop><stop offset="46.82%" stop-color="#E91F52"></stop><stop offset="61.58%" stop-color="#EC1E4F"></stop><stop offset="100%" stop-color="#F8E47F"></stop></linearGradient><linearGradient id="G" x1="80.291%" x2="21.404%" y1="14.091%" y2="97.156%"><stop offset="0%" stop-color="#7F3996"></stop><stop offset="7.1%" stop-color="#9C2F82"></stop><stop offset="15.99%" stop-color="#B92770"></stop><stop offset="25.42%" stop-color="#D02162"></stop><stop offset="35.54%" stop-color="#DF1E57"></stop><stop offset="46.82%" stop-color="#E91F52"></stop><stop offset="61.58%" stop-color="#EC1E4F"></stop><stop offset="100%" stop-color="#F8E47F"></stop></linearGradient><linearGradient id="H" x1="76.025%" x2="25.917%" y1="-4.778%" y2="100.047%"><stop offset="0%" stop-color="#7F3996"></stop><stop offset="9.59%" stop-color="#873A93"></stop><stop offset="24.69%" stop-color="#9E3B90"></stop><stop offset="43.29%" stop-color="#C23B89"></stop><stop offset="61.58%" stop-color="#EC3E81"></stop><stop offset="100%" stop-color="#F8E47F"></stop></linearGradient><linearGradient id="I" x1="54.805%" x2="35.235%" y1="35.23%" y2="97.281%"><stop offset="0%" stop-color="#7F3996"></stop><stop offset="7.1%" stop-color="#9C2F82"></stop><stop offset="15.99%" stop-color="#B92770"></stop><stop offset="25.42%" stop-color="#D02162"></stop><stop offset="35.54%" stop-color="#DF1E57"></stop><stop offset="46.82%" stop-color="#E91F52"></stop><stop offset="61.58%" stop-color="#EC1E4F"></stop><stop offset="100%" stop-color="#F8E47F"></stop></linearGradient><linearGradient id="J" x1="56.075%" x2="41.889%" y1="31.589%" y2="89.903%"><stop offset="0%" stop-color="#7F3996"></stop><stop offset="7.1%" stop-color="#9C2F82"></stop><stop offset="15.99%" stop-color="#B92770"></stop><stop offset="25.42%" stop-color="#D02162"></stop><stop offset="35.54%" stop-color="#DF1E57"></stop><stop offset="46.82%" stop-color="#E91F52"></stop><stop offset="61.58%" stop-color="#EC1E4F"></stop><stop offset="100%" stop-color="#F8E47F"></stop></linearGradient><linearGradient id="K" x1="54.689%" x2="32.079%" y1="22.488%" y2="154.954%"><stop offset="0%" stop-color="#7F3996"></stop><stop offset="7.1%" stop-color="#9C2F82"></stop><stop offset="15.99%" stop-color="#B92770"></stop><stop offset="25.42%" stop-color="#D02162"></stop><stop offset="35.54%" stop-color="#DF1E57"></stop><stop offset="46.82%" stop-color="#E91F52"></stop><stop offset="61.58%" stop-color="#EC1E4F"></stop><stop offset="100%" stop-color="#F8E47F"></stop></linearGradient><linearGradient id="L" x1="56.249%" x2="40.593%" y1="25.105%" y2="88.789%"><stop offset="0%" stop-color="#7F3996"></stop><stop offset="7.1%" stop-color="#9C2F82"></stop><stop offset="15.99%" stop-color="#B92770"></stop><stop offset="25.42%" stop-color="#D02162"></stop><stop offset="35.54%" stop-color="#DF1E57"></stop><stop offset="46.82%" stop-color="#E91F52"></stop><stop offset="61.58%" stop-color="#EC1E4F"></stop><stop offset="100%" stop-color="#F8E47F"></stop></linearGradient><linearGradient id="M" x1="55.804%" x2="33.194%" y1="12.814%" y2="155.289%"><stop offset="0%" stop-color="#7F3996"></stop><stop offset="7.1%" stop-color="#9C2F82"></stop><stop offset="15.99%" stop-color="#B92770"></stop><stop offset="25.42%" stop-color="#D02162"></stop><stop offset="35.54%" stop-color="#DF1E57"></stop><stop offset="46.82%" stop-color="#E91F52"></stop><stop offset="61.58%" stop-color="#EC1E4F"></stop><stop offset="100%" stop-color="#F8E47F"></stop></linearGradient><linearGradient id="N" x1="54.103%" x2="46.781%" y1="7.856%" y2="83.491%"><stop offset="0%" stop-color="#7F3996"></stop><stop offset="7.1%" stop-color="#9C2F82"></stop><stop offset="15.99%" stop-color="#B92770"></stop><stop offset="25.42%" stop-color="#D02162"></stop><stop offset="35.54%" stop-color="#DF1E57"></stop><stop offset="46.82%" stop-color="#E91F52"></stop><stop offset="61.58%" stop-color="#EC1E4F"></stop><stop offset="100%" stop-color="#F8E47F"></stop></linearGradient><linearGradient id="O" x1="52.814%" x2="44.77%" y1="16.019%" y2="115.366%"><stop offset="0%" stop-color="#7F3996"></stop><stop offset="7.1%" stop-color="#9C2F82"></stop><stop offset="15.99%" stop-color="#B92770"></stop><stop offset="25.42%" stop-color="#D02162"></stop><stop offset="35.54%" stop-color="#DF1E57"></stop><stop offset="46.82%" stop-color="#E91F52"></stop><stop offset="61.58%" stop-color="#EC1E4F"></stop><stop offset="100%" stop-color="#F8E47F"></stop></linearGradient><linearGradient id="P" x1="53.103%" x2="44.409%" y1="11.805%" y2="118.907%"><stop offset="0%" stop-color="#7F3996"></stop><stop offset="7.1%" stop-color="#9C2F82"></stop><stop offset="15.99%" stop-color="#B92770"></stop><stop offset="25.42%" stop-color="#D02162"></stop><stop offset="35.54%" stop-color="#DF1E57"></stop><stop offset="46.82%" stop-color="#E91F52"></stop><stop offset="61.58%" stop-color="#EC1E4F"></stop><stop offset="100%" stop-color="#F8E47F"></stop></linearGradient><linearGradient id="Q" x1="55.463%" x2="37.302%" y1=".975%" y2="159.673%"><stop offset="0%" stop-color="#7F3996"></stop><stop offset="7.1%" stop-color="#9C2F82"></stop><stop offset="15.99%" stop-color="#B92770"></stop><stop offset="25.42%" stop-color="#D02162"></stop><stop offset="35.54%" stop-color="#DF1E57"></stop><stop offset="46.82%" stop-color="#E91F52"></stop><stop offset="61.58%" stop-color="#EC1E4F"></stop><stop offset="100%" stop-color="#F8E47F"></stop></linearGradient><linearGradient id="R" x1="54.841%" x2="39.382%" y1="-.941%" y2="157.756%"><stop offset="0%" stop-color="#7F3996"></stop><stop offset="7.1%" stop-color="#9C2F82"></stop><stop offset="15.99%" stop-color="#B92770"></stop><stop offset="25.42%" stop-color="#D02162"></stop><stop offset="35.54%" stop-color="#DF1E57"></stop><stop offset="46.82%" stop-color="#E91F52"></stop><stop offset="61.58%" stop-color="#EC1E4F"></stop><stop offset="100%" stop-color="#F8E47F"></stop></linearGradient><linearGradient id="S" x1="54.572%" x2="44.507%" y1="15.507%" y2="89.969%"><stop offset="0%" stop-color="#7F3996"></stop><stop offset="7.1%" stop-color="#9C2F82"></stop><stop offset="15.99%" stop-color="#B92770"></stop><stop offset="25.42%" stop-color="#D02162"></stop><stop offset="35.54%" stop-color="#DF1E57"></stop><stop offset="46.82%" stop-color="#E91F52"></stop><stop offset="61.58%" stop-color="#EC1E4F"></stop><stop offset="100%" stop-color="#F8E47F"></stop></linearGradient><linearGradient id="T" x1="54.242%" x2="41.208%" y1="-3.009%" y2="160.547%"><stop offset="0%" stop-color="#7F3996"></stop><stop offset="7.1%" stop-color="#9C2F82"></stop><stop offset="15.99%" stop-color="#B92770"></stop><stop offset="25.42%" stop-color="#D02162"></stop><stop offset="35.54%" stop-color="#DF1E57"></stop><stop offset="46.82%" stop-color="#E91F52"></stop><stop offset="61.58%" stop-color="#EC1E4F"></stop><stop offset="100%" stop-color="#F8E47F"></stop></linearGradient><linearGradient id="U" x1="53.775%" x2="45.321%" y1="17.448%" y2="92.293%"><stop offset="0%" stop-color="#7F3996"></stop><stop offset="7.1%" stop-color="#9C2F82"></stop><stop offset="15.99%" stop-color="#B92770"></stop><stop offset="25.42%" stop-color="#D02162"></stop><stop offset="35.54%" stop-color="#DF1E57"></stop><stop offset="46.82%" stop-color="#E91F52"></stop><stop offset="61.58%" stop-color="#EC1E4F"></stop><stop offset="100%" stop-color="#F8E47F"></stop></linearGradient><linearGradient id="V" x1="53.991%" x2="41.86%" y1="-4.158%" y2="155.329%"><stop offset="0%" stop-color="#7F3996"></stop><stop offset="7.1%" stop-color="#9C2F82"></stop><stop offset="15.99%" stop-color="#B92770"></stop><stop offset="25.42%" stop-color="#D02162"></stop><stop offset="35.54%" stop-color="#DF1E57"></stop><stop offset="46.82%" stop-color="#E91F52"></stop><stop offset="61.58%" stop-color="#EC1E4F"></stop><stop offset="100%" stop-color="#F8E47F"></stop></linearGradient><linearGradient id="W" x1="52.894%" x2="45.151%" y1="20.818%" y2="98.465%"><stop offset="0%" stop-color="#7F3996"></stop><stop offset="7.1%" stop-color="#9C2F82"></stop><stop offset="15.99%" stop-color="#B92770"></stop><stop offset="25.42%" stop-color="#D02162"></stop><stop offset="35.54%" stop-color="#DF1E57"></stop><stop offset="46.82%" stop-color="#E91F52"></stop><stop offset="61.58%" stop-color="#EC1E4F"></stop><stop offset="100%" stop-color="#F8E47F"></stop></linearGradient><linearGradient id="X" x1="18.8%" x2="117.397%" y1="73.647%" y2="-83.503%"><stop offset="0%" stop-color="#6A3894"></stop><stop offset="10.58%" stop-color="#8A2F83"></stop><stop offset="26.53%" stop-color="#B4256C"></stop><stop offset="40.92%" stop-color="#D31C5D"></stop><stop offset="53.09%" stop-color="#E51E54"></stop><stop offset="61.58%" stop-color="#EC1E4F"></stop><stop offset="100%" stop-color="#F8E47F"></stop></linearGradient><linearGradient id="Y" x1="27.745%" x2="109.998%" y1="80.148%" y2="-58.869%"><stop offset="0%" stop-color="#6A3894"></stop><stop offset="10.58%" stop-color="#8A2F83"></stop><stop offset="26.53%" stop-color="#B4256C"></stop><stop offset="40.92%" stop-color="#D31C5D"></stop><stop offset="53.09%" stop-color="#E51E54"></stop><stop offset="61.58%" stop-color="#EC1E4F"></stop><stop offset="100%" stop-color="#F8E47F"></stop></linearGradient><linearGradient id="Z" x1="38.21%" x2="91.4%" y1="76.922%" y2="-54.681%"><stop offset="0%" stop-color="#6A3894"></stop><stop offset="10.58%" stop-color="#8A2F83"></stop><stop offset="26.53%" stop-color="#B4256C"></stop><stop offset="40.92%" stop-color="#D31C5D"></stop><stop offset="53.09%" stop-color="#E51E54"></stop><stop offset="61.58%" stop-color="#EC1E4F"></stop><stop offset="100%" stop-color="#F8E47F"></stop></linearGradient><linearGradient id="aa" x1="32.743%" x2="87.579%" y1="82.686%" y2="-44.689%"><stop offset="0%" stop-color="#6A3894"></stop><stop offset="10.58%" stop-color="#8A2F83"></stop><stop offset="26.53%" stop-color="#B4256C"></stop><stop offset="40.92%" stop-color="#D31C5D"></stop><stop offset="53.09%" stop-color="#E51E54"></stop><stop offset="61.58%" stop-color="#EC1E4F"></stop><stop offset="100%" stop-color="#F8E47F"></stop></linearGradient><linearGradient id="ab" x1="40.24%" x2="84.908%" y1="78.535%" y2="-52.423%"><stop offset="0%" stop-color="#6A3894"></stop><stop offset="10.58%" stop-color="#8A2F83"></stop><stop offset="26.53%" stop-color="#B4256C"></stop><stop offset="40.92%" stop-color="#D31C5D"></stop><stop offset="53.09%" stop-color="#E51E54"></stop><stop offset="61.58%" stop-color="#EC1E4F"></stop><stop offset="100%" stop-color="#F8E47F"></stop></linearGradient><linearGradient id="ac" x1="33.922%" x2="78.718%" y1="87.723%" y2="-34.245%"><stop offset="0%" stop-color="#6A3894"></stop><stop offset="10.58%" stop-color="#8A2F83"></stop><stop offset="26.53%" stop-color="#B4256C"></stop><stop offset="40.92%" stop-color="#D31C5D"></stop><stop offset="53.09%" stop-color="#E51E54"></stop><stop offset="61.58%" stop-color="#EC1E4F"></stop><stop offset="100%" stop-color="#F8E47F"></stop></linearGradient><linearGradient id="ad" x1="41.127%" x2="78.045%" y1="77.814%" y2="-44.174%"><stop offset="0%" stop-color="#6A3894"></stop><stop offset="10.58%" stop-color="#8A2F83"></stop><stop offset="26.53%" stop-color="#B4256C"></stop><stop offset="40.92%" stop-color="#D31C5D"></stop><stop offset="53.09%" stop-color="#E51E54"></stop><stop offset="61.58%" stop-color="#EC1E4F"></stop><stop offset="100%" stop-color="#F8E47F"></stop></linearGradient><linearGradient id="ae" x1="40.866%" x2="80.114%" y1="82%" y2="-43.425%"><stop offset="0%" stop-color="#6A3894"></stop><stop offset="10.58%" stop-color="#8A2F83"></stop><stop offset="26.53%" stop-color="#B4256C"></stop><stop offset="40.92%" stop-color="#D31C5D"></stop><stop offset="53.09%" stop-color="#E51E54"></stop><stop offset="61.58%" stop-color="#EC1E4F"></stop><stop offset="100%" stop-color="#F8E47F"></stop></linearGradient><linearGradient id="af" x1="33.909%" x2="77.477%" y1="98.207%" y2="-29.168%"><stop offset="0%" stop-color="#6A3894"></stop><stop offset="10.58%" stop-color="#8A2F83"></stop><stop offset="26.53%" stop-color="#B4256C"></stop><stop offset="40.92%" stop-color="#D31C5D"></stop><stop offset="53.09%" stop-color="#E51E54"></stop><stop offset="61.58%" stop-color="#EC1E4F"></stop><stop offset="100%" stop-color="#F8E47F"></stop></linearGradient><linearGradient id="ag" x1="40.31%" x2="78.446%" y1="85.981%" y2="-51.021%"><stop offset="0%" stop-color="#6A3894"></stop><stop offset="10.58%" stop-color="#8A2F83"></stop><stop offset="26.53%" stop-color="#B4256C"></stop><stop offset="40.92%" stop-color="#D31C5D"></stop><stop offset="53.09%" stop-color="#E51E54"></stop><stop offset="61.58%" stop-color="#EC1E4F"></stop><stop offset="100%" stop-color="#F8E47F"></stop></linearGradient><linearGradient id="ah" x1="32.376%" x2="74.783%" y1="106.137%" y2="-27.147%"><stop offset="0%" stop-color="#6A3894"></stop><stop offset="10.58%" stop-color="#8A2F83"></stop><stop offset="26.53%" stop-color="#B4256C"></stop><stop offset="40.92%" stop-color="#D31C5D"></stop><stop offset="53.09%" stop-color="#E51E54"></stop><stop offset="61.58%" stop-color="#EC1E4F"></stop><stop offset="100%" stop-color="#F8E47F"></stop></linearGradient><linearGradient id="ai" x1="39.507%" x2="78.191%" y1="90.206%" y2="-48.937%"><stop offset="0%" stop-color="#6A3894"></stop><stop offset="10.58%" stop-color="#8A2F83"></stop><stop offset="26.53%" stop-color="#B4256C"></stop><stop offset="40.92%" stop-color="#D31C5D"></stop><stop offset="53.09%" stop-color="#E51E54"></stop><stop offset="61.58%" stop-color="#EC1E4F"></stop><stop offset="100%" stop-color="#F8E47F"></stop></linearGradient><linearGradient id="aj" x1="31.245%" x2="72.91%" y1="113.21%" y2="-28.086%"><stop offset="0%" stop-color="#6A3894"></stop><stop offset="10.58%" stop-color="#8A2F83"></stop><stop offset="26.53%" stop-color="#B4256C"></stop><stop offset="40.92%" stop-color="#D31C5D"></stop><stop offset="53.09%" stop-color="#E51E54"></stop><stop offset="61.58%" stop-color="#EC1E4F"></stop><stop offset="100%" stop-color="#F8E47F"></stop></linearGradient><linearGradient id="ak" x1="40.419%" x2="72.375%" y1="97.375%" y2="-52.712%"><stop offset="0%" stop-color="#6A3894"></stop><stop offset="10.58%" stop-color="#8A2F83"></stop><stop offset="26.53%" stop-color="#B4256C"></stop><stop offset="40.92%" stop-color="#D31C5D"></stop><stop offset="53.09%" stop-color="#E51E54"></stop><stop offset="61.58%" stop-color="#EC1E4F"></stop><stop offset="100%" stop-color="#F8E47F"></stop></linearGradient><linearGradient id="al" x1="28.389%" x2="69.164%" y1="127.879%" y2="-23.332%"><stop offset="0%" stop-color="#6A3894"></stop><stop offset="10.58%" stop-color="#8A2F83"></stop><stop offset="26.53%" stop-color="#B4256C"></stop><stop offset="40.92%" stop-color="#D31C5D"></stop><stop offset="53.09%" stop-color="#E51E54"></stop><stop offset="61.58%" stop-color="#EC1E4F"></stop><stop offset="100%" stop-color="#F8E47F"></stop></linearGradient><linearGradient id="am" x1="39.344%" x2="68.744%" y1="105.266%" y2="-45.668%"><stop offset="0%" stop-color="#6A3894"></stop><stop offset="10.58%" stop-color="#8A2F83"></stop><stop offset="26.53%" stop-color="#B4256C"></stop><stop offset="40.92%" stop-color="#D31C5D"></stop><stop offset="53.09%" stop-color="#E51E54"></stop><stop offset="61.58%" stop-color="#EC1E4F"></stop><stop offset="100%" stop-color="#F8E47F"></stop></linearGradient><linearGradient id="an" x1="38.567%" x2="67.755%" y1="109.272%" y2="-46.05%"><stop offset="0%" stop-color="#6A3894"></stop><stop offset="10.58%" stop-color="#8A2F83"></stop><stop offset="26.53%" stop-color="#B4256C"></stop><stop offset="40.92%" stop-color="#D31C5D"></stop><stop offset="53.09%" stop-color="#E51E54"></stop><stop offset="61.58%" stop-color="#EC1E4F"></stop><stop offset="100%" stop-color="#F8E47F"></stop></linearGradient><linearGradient id="ao" x1="39.202%" x2="65.885%" y1="117.022%" y2="-33.064%"><stop offset="0%" stop-color="#6A3894"></stop><stop offset="10.58%" stop-color="#8A2F83"></stop><stop offset="26.53%" stop-color="#B4256C"></stop><stop offset="40.92%" stop-color="#D31C5D"></stop><stop offset="53.09%" stop-color="#E51E54"></stop><stop offset="61.58%" stop-color="#EC1E4F"></stop><stop offset="100%" stop-color="#F8E47F"></stop></linearGradient><linearGradient id="ap" x1="31.855%" x2="99.209%" y1="87.333%" y2="-50.691%"><stop offset="0%" stop-color="#6A3894"></stop><stop offset="10.58%" stop-color="#8A2F83"></stop><stop offset="26.53%" stop-color="#B4256C"></stop><stop offset="40.92%" stop-color="#D31C5D"></stop><stop offset="53.09%" stop-color="#E51E54"></stop><stop offset="61.58%" stop-color="#EC1E4F"></stop><stop offset="100%" stop-color="#F8E47F"></stop></linearGradient><linearGradient id="aq" x1="24.991%" x2="90.165%" y1="105.669%" y2="-33.201%"><stop offset="0%" stop-color="#6A3894"></stop><stop offset="10.58%" stop-color="#8A2F83"></stop><stop offset="26.53%" stop-color="#B4256C"></stop><stop offset="40.92%" stop-color="#D31C5D"></stop><stop offset="53.09%" stop-color="#E51E54"></stop><stop offset="61.58%" stop-color="#EC1E4F"></stop><stop offset="100%" stop-color="#F8E47F"></stop></linearGradient><linearGradient id="ar" x1="139.779%" x2="-149.959%" y1=".615%" y2="198.322%"><stop offset="0%" stop-color="#D4E5EE"></stop><stop offset="7.22%" stop-color="#CDDFE8"></stop><stop offset="18.58%" stop-color="#B4CBD7"></stop><stop offset="32.67%" stop-color="#90ABBB"></stop><stop offset="48.78%" stop-color="#5F8096"></stop><stop offset="55.37%" stop-color="#486D86"></stop><stop offset="59.41%" stop-color="#5D7E95"></stop><stop offset="68.5%" stop-color="#88A3B5"></stop><stop offset="77.34%" stop-color="#AAC1CE"></stop><stop offset="85.72%" stop-color="#C1D5E0"></stop><stop offset="93.48%" stop-color="#D0E1EA"></stop><stop offset="100%" stop-color="#D4E5EE"></stop></linearGradient><linearGradient id="as" x1="110.786%" x2="29.296%" y1="-267.695%" y2="157.982%"><stop offset="0%" stop-color="#D4E5EE"></stop><stop offset="7.22%" stop-color="#CDDFE8"></stop><stop offset="18.58%" stop-color="#B4CBD7"></stop><stop offset="32.67%" stop-color="#90ABBB"></stop><stop offset="48.78%" stop-color="#5F8096"></stop><stop offset="55.37%" stop-color="#486D86"></stop><stop offset="59.41%" stop-color="#5D7E95"></stop><stop offset="68.5%" stop-color="#88A3B5"></stop><stop offset="77.34%" stop-color="#AAC1CE"></stop><stop offset="85.72%" stop-color="#C1D5E0"></stop><stop offset="93.48%" stop-color="#D0E1EA"></stop><stop offset="100%" stop-color="#D4E5EE"></stop></linearGradient><linearGradient id="at" x1="103.516%" x2="-26.868%" y1="-125.978%" y2="304.088%"><stop offset="0%" stop-color="#D4E5EE"></stop><stop offset="7.22%" stop-color="#CDDFE8"></stop><stop offset="18.58%" stop-color="#B4CBD7"></stop><stop offset="32.67%" stop-color="#90ABBB"></stop><stop offset="48.78%" stop-color="#5F8096"></stop><stop offset="55.37%" stop-color="#486D86"></stop><stop offset="59.41%" stop-color="#5D7E95"></stop><stop offset="68.5%" stop-color="#88A3B5"></stop><stop offset="77.34%" stop-color="#AAC1CE"></stop><stop offset="85.72%" stop-color="#C1D5E0"></stop><stop offset="93.48%" stop-color="#D0E1EA"></stop><stop offset="100%" stop-color="#D4E5EE"></stop></linearGradient><linearGradient id="au" x1="154.582%" x2="-217.943%" y1="-23.7%" y2="218.837%"><stop offset="0%" stop-color="#D4E5EE"></stop><stop offset="7.22%" stop-color="#CDDFE8"></stop><stop offset="18.58%" stop-color="#B4CBD7"></stop><stop offset="32.67%" stop-color="#90ABBB"></stop><stop offset="48.78%" stop-color="#5F8096"></stop><stop offset="55.37%" stop-color="#486D86"></stop><stop offset="59.41%" stop-color="#5D7E95"></stop><stop offset="68.5%" stop-color="#88A3B5"></stop><stop offset="77.34%" stop-color="#AAC1CE"></stop><stop offset="85.72%" stop-color="#C1D5E0"></stop><stop offset="93.48%" stop-color="#D0E1EA"></stop><stop offset="100%" stop-color="#D4E5EE"></stop></linearGradient><linearGradient id="av" x1="99.211%" x2="-47.287%" y1="-20.856%" y2="216.169%"><stop offset="0%" stop-color="#D4E5EE"></stop><stop offset="7.22%" stop-color="#CDDFE8"></stop><stop offset="18.58%" stop-color="#B4CBD7"></stop><stop offset="32.67%" stop-color="#90ABBB"></stop><stop offset="48.78%" stop-color="#5F8096"></stop><stop offset="55.37%" stop-color="#486D86"></stop><stop offset="59.41%" stop-color="#5D7E95"></stop><stop offset="68.5%" stop-color="#88A3B5"></stop><stop offset="77.34%" stop-color="#AAC1CE"></stop><stop offset="85.72%" stop-color="#C1D5E0"></stop><stop offset="93.48%" stop-color="#D0E1EA"></stop><stop offset="100%" stop-color="#D4E5EE"></stop></linearGradient><linearGradient id="aw" x1="116.137%" x2="-120.924%" y1="-19.298%" y2="219.081%"><stop offset="0%" stop-color="#D4E5EE"></stop><stop offset="7.22%" stop-color="#CDDFE8"></stop><stop offset="18.58%" stop-color="#B4CBD7"></stop><stop offset="32.67%" stop-color="#90ABBB"></stop><stop offset="48.78%" stop-color="#5F8096"></stop><stop offset="55.37%" stop-color="#486D86"></stop><stop offset="59.41%" stop-color="#5D7E95"></stop><stop offset="68.5%" stop-color="#88A3B5"></stop><stop offset="77.34%" stop-color="#AAC1CE"></stop><stop offset="85.72%" stop-color="#C1D5E0"></stop><stop offset="93.48%" stop-color="#D0E1EA"></stop><stop offset="100%" stop-color="#D4E5EE"></stop></linearGradient><linearGradient id="ax" x1="107.112%" x2="17.807%" y1="-1209.887%" y2="686.309%"><stop offset="0%" stop-color="#D4E5EE"></stop><stop offset="7.22%" stop-color="#CDDFE8"></stop><stop offset="18.58%" stop-color="#B4CBD7"></stop><stop offset="32.67%" stop-color="#90ABBB"></stop><stop offset="48.78%" stop-color="#5F8096"></stop><stop offset="55.37%" stop-color="#486D86"></stop><stop offset="59.41%" stop-color="#5D7E95"></stop><stop offset="68.5%" stop-color="#88A3B5"></stop><stop offset="77.34%" stop-color="#AAC1CE"></stop><stop offset="85.72%" stop-color="#C1D5E0"></stop><stop offset="93.48%" stop-color="#D0E1EA"></stop><stop offset="100%" stop-color="#D4E5EE"></stop></linearGradient><linearGradient id="ay" x1="103.166%" x2="33.442%" y1="-263.873%" y2="149.161%"><stop offset="0%" stop-color="#D4E5EE"></stop><stop offset="7.22%" stop-color="#CDDFE8"></stop><stop offset="18.58%" stop-color="#B4CBD7"></stop><stop offset="32.67%" stop-color="#90ABBB"></stop><stop offset="48.78%" stop-color="#5F8096"></stop><stop offset="55.37%" stop-color="#486D86"></stop><stop offset="59.41%" stop-color="#5D7E95"></stop><stop offset="68.5%" stop-color="#88A3B5"></stop><stop offset="77.34%" stop-color="#AAC1CE"></stop><stop offset="85.72%" stop-color="#C1D5E0"></stop><stop offset="93.48%" stop-color="#D0E1EA"></stop><stop offset="100%" stop-color="#D4E5EE"></stop></linearGradient><linearGradient id="az" x1="120.648%" x2="27.518%" y1="-176.667%" y2="107.118%"><stop offset="0%" stop-color="#D4E5EE"></stop><stop offset="7.22%" stop-color="#CDDFE8"></stop><stop offset="18.58%" stop-color="#B4CBD7"></stop><stop offset="32.67%" stop-color="#90ABBB"></stop><stop offset="48.78%" stop-color="#5F8096"></stop><stop offset="55.37%" stop-color="#486D86"></stop><stop offset="59.41%" stop-color="#5D7E95"></stop><stop offset="68.5%" stop-color="#88A3B5"></stop><stop offset="77.34%" stop-color="#AAC1CE"></stop><stop offset="85.72%" stop-color="#C1D5E0"></stop><stop offset="93.48%" stop-color="#D0E1EA"></stop><stop offset="100%" stop-color="#D4E5EE"></stop></linearGradient><linearGradient id="aA" x1="164.291%" x2="3.324%" y1="-159.745%" y2="104.282%"><stop offset="0%" stop-color="#D4E5EE"></stop><stop offset="7.22%" stop-color="#CDDFE8"></stop><stop offset="18.58%" stop-color="#B4CBD7"></stop><stop offset="32.67%" stop-color="#90ABBB"></stop><stop offset="48.78%" stop-color="#5F8096"></stop><stop offset="55.37%" stop-color="#486D86"></stop><stop offset="59.41%" stop-color="#5D7E95"></stop><stop offset="68.5%" stop-color="#88A3B5"></stop><stop offset="77.34%" stop-color="#AAC1CE"></stop><stop offset="85.72%" stop-color="#C1D5E0"></stop><stop offset="93.48%" stop-color="#D0E1EA"></stop><stop offset="100%" stop-color="#D4E5EE"></stop></linearGradient></defs><path fill="#DCDDDE" d="M254.802 62.05l-.2-.1v-.593l-.3-.791-.598-.692-.8-.495-.099-.198-.6-.593-.898-.495-.798-.296h-.2l-.799-.693-1.098-.593-1.198-.593-1.298-.396h-.2l-.998-1.088-1.198-.989-1.199-.593-1.198-.297h-.2l-1.098-.791-1.797-.693-.799-.098-1.098-.693-1.198-.494-1.098-.198-1.198-.099-1.199.099-.898.198-.5-.89-1.497-.99-1.897-.395h-1.697l-2.097.396-.6.197-1.497-.593-1.697-.495-1.797-.197h-1.698l-1.797.197h-.2l-1.797-.692-1.897-.494-1.897-.297-.998-.099-1.598-1.483-1.797-1.286-1.797-.89-1.598-.495-1.997-.099-.898.1-.799-.693-1.398-.593-1.697-.198-.999.198-1.397-.495-1.498-.396-1.398-.197h-.5l-2.096-.792-2.596-.692-2.396-.198h-.3l-2.196-1.285-2.496-.594h-1.698l-3.694-.89-2.396-.198h-.799l-1.198-1.187-1.697-.989-1.897-.494-1.897.198-1.199.296-1.597-.296-1.697-.1-1.997.1h-.1v-.297l-2.995-.692-2.796-.396-2.596-.099-.899.1v-.1l-1.996-.297-1.997-.197h-.2l-2.197-.89-2.296-.594-2.097-.297h-1.497l-2.197-.79-1.797-.396-1.897-.1h-.3l-2.096-1.384-1.997-.791-1.498-.198-1.597-.791-2.397-.593-2.096.098-2.097-.989-2.197-.494h-1.098l-2.197-1.187-2.196-.593-2.197-.1-.4.1-2.895-1.484-2.196-.791-2.297-.198h-.1l-1.198-.692-1.298-.594-1.397-.395-1.498-.1-1.198.1-1.398-.99-1.697-.691-1.897-.297-1.598.099-1.897.395-.2.1-1.897-.89-1.996-.495-1.898-.1-1.497-.988-1.598-.594-1.697-.198-1.598.198-1.397.396-1.099-1.088-1.397-.89-1.698-.297-1.497.297-1.099.494-.699-.494-.699-.297-.798-.297-.6-.098-.898.098-.899.297-.898.594-.2.197-1.697-.395-1.698.099-1.497.494-1.198.89-.999 1.187-.699 1.484-.499 1.582-.4 1.681-.199 1.682.1 7.516c-.999-.395-1.997-.791-2.896-1.088l.1-1.088.2-1.186.1-1.286.1-1.286.1-1.187.1-1.187-.1-1.186-.1-1.187-.1-1.187-.2-.989-.3-.989-.1-.396.1-.296.3-.99.4-.988.299-.99.5-.988-1.698 1.582-.799.692-.3-.395-.698-.693-.8-.593.2 1.187.2 1.187.2.79-.5.693-.299.693-.1-.297-.2-.594-.199-.692-.2-.791v-.692l-.1-.792-.1-.692-.1-.791v-.791l.1-.693.1-.692.1-.692.2-.693.2-.593-.899 1.187-.699 1.286-.499 1.285-.3 1.286-.1 1.385v1.384l.2 1.385.3 1.384.3 1.088-.5-.296-.5-.693-.598-.79-.6-.792-.498-.89-.5-.99-.399-1.186-.3-1.385-.1-1.582-1.098.989-.599 1.088-.3 1.187v1.186l.2 1.187.5 1.286.599 1.286.599.989-1.099-.198-1.198-.099.8.495.798.494.799.495.699.494.698.495.6.593.998 1.088.998.989.899.989.799.89.699.791.399.495.4.494.2.297C27.955 19.918 15.375 14.379 0 7.06c3.095 5.044 14.477 10.286 19.17 13.847 4.992 2.67 11.881 5.538 17.872 7.813l-1.298.296-1.298.198-.499.1h-.3l-.898.098-.899.099h-.898l-.899.099H28.256l-.899-.099-.898-.099-.899-.099-.899-.099-.898-.198-.899-.197.999.692.998.593.999.396.998.297.6.099-1.299.395-1.298.495-1.597.89-1.198.791-.999.791-.899.99-.798.988-.6 1.187-.399 1.385.4-.495.499-.494.5-.495.498-.494.6-.396.598-.396.6-.395.599-.396.698-.296.6-.297.698-.198.7-.297.698-.197.7-.198.598-.1.7-.098 1.197-.495 1.298-.692 1.298-.791 1.298-.791 1.198-.693.6-.197h.1l-.9.494-.898.594-.998.593-.999.692-.898.594-.999.593-.898.593-.999.594-.998.593-.999.594-.998.593-.999.593-1.198.792-1.098.593 1.098.099 1.098-.099.999-.198.998-.296.999-.396-.3.297-.699 1.088-.499 1.186-.2 1.286.2 1.286.5 1.286.798-1.484.799-1.187.799-1.088.798-.89.8-.692.898-.594.898-.593.899-.494.5-.297-.1.099-.3 1.285-.2 1.583.1 1.681.3 1.88.599 2.175.2-1.088.199-.989.3-.989.299-.989.3-.989.399-.89.4-.989.498-.989.5-.89.499-.89.5-.99.498-.89.6-.89.598-.988.6-.99.499-.79c.799.296 1.497.593 2.196.79l-1.298 2.176-1.198 2.374-.998 2.868-.4 1.583-.1 1.483.1 1.484.3 1.285.699 1.385 1.098 1.187 1.598.89 1.597.494.4.89.898 1.187.899.792.798.593.9.494.898.297.798.099h.999l.898 1.187 1.298.989 1.498.593 1.797.1 1.398-.396.2.296 1.298 1.187 1.298.89 1.298.594 1.797.296 1.098-.099 1.098.792 1.698.692 1.497.396 1.099.79 1.797.792 2.296.494 2.097.1.1.098 1.597 1.187 1.598.89 1.498.495 1.897.197 1.697-.296.699.395 1.298.594 1.398.296 1.298.1 1.198-.198.4.296 2.096.693 2.396.296 2.596-.099.5.297 2.096.692 2.097.297 2.795-.099 1.798.594 2.196.296 2.097-.099.699.396 2.096.791 2.397.297 2.396-.297v-.099l1.198.297h1.997l2.197-.494 1.298.494 1.697.396 1.697.197h2.097l.5.198 1.996.594 2.097.395 2.296.1 2.297-.199v-.099l1.198.297 1.897.297 1.897.099.1-.198 1.298.396 2.496.395 2.695.1 2.896-.1.4.1 1.797.395 1.697.197 1.697.1.1.098 1.598.791 1.897.495h1.697l1.797-.396 1.498-.89 1.697.495 2.297.198h2.396l.5.197 2.395.396 2.297-.198 2.396-.791 1.997.198 2.496-.1 1.897-.296 1.098.198 1.398.099 3.095-.297.999.396 1.497.198 1.298-.297.999-.495h.1l1.597.495 1.697.297h1.698l1.797-.396 1.897-.89 1.797-1.088 1.398.099 1.897-.099 1.598-.198.898.297 1.598.297 1.597.197 1.698-.099 1.597-.296.3.099 1.996.692 1.798.396h1.597l1.598-.495.798-.791.4.099 1.098.296 1.098.198 1.198-.099 1.099-.197.799-.297 1.397.099 1.498-.198 1.398-.593h.2l1.397-.1 1.198-.197 1.398-.594.999-.692h1.298l1.198-.198 1.098-.296 1.198-.495h.5l.698-.099.7-.296.199-.198.799-.1.898-.395.4-.692.1-.495h.299l.899-.89.1-.395.2.099.099-2.473-1.198-1.385zM41.236 25.257l-1.498-.593-.1-.198v-.198l.1.198-.1-.297v-.395l.1-1.187.1-1.187.1-1.187.1-1.088.1-.79.1.89.099.988.2.99.2.988.199.99.2.988.1 1.088zm-4.194 3.56h.1l-.5.297h-.599l.3-.197.7-.1zm-2.596 2.77l.899-.89.898-.99.4-.395.599-.297-.4.1.2-.198c.5.197 1.098.395 1.598.593l-.6.396-.998.494-1.198.594-1.198.593-.699.297.5-.297zm5.192-1.385l-.5.495-.698.395-.6.396.2-.396.8-1.582c.399.198.798.297 1.197.396l-.399.296z"></path><g stroke="#231F20"><path fill="#231F20" stroke-width=".596" d="M255.8 61.8C235.2 59 159 55.1 125.1 49.6c-27.3-4.5-54-12.6-79.5-21.1-6.6-2.2-18.2-6.7-25.7-10.8-4.7-3.6-16.1-9-19.2-14C50.1 27.1 70 33.5 127.9 45.3c23.5 4.8 108.9 11.7 127.9 16.5z"></path><path fill="url(#a)" stroke-width=".254" d="M182.8 70.9l-2.2.8-2.2.1-2.1-.3-2.2-.9-2.1-1.1-2.1-1.6-2-1.7-1.9-1.9-1.9-1.9-1.8-1.9-1.7-1.9-1.5-1.7-1.5-1.5-1.3-1.1-1.2-.8-1-.3h.8l1 .1 1 .1 1.1.1 1 .1 1.1.1 1 .1.9.1 1.5 1.4 1.4 1.2 1.2 1.3 1.1 1.3 1.1 1.2 1.1 1.2 1 1.2 1 1.1 1.1 1.1 1.1 1 1.2 1 1.3.9 1.4.9 1.6.8 1.7.8 2 .6z"></path><path fill="url(#b)" stroke-width=".254" d="M190 70.6l-2.5.4-2.4.1-2.2-.2-2.1-.6-2-.8-1.7-1-1.8-1.1-1.5-1.4-1.6-1.4-1.5-1.5-1.4-1.6-1.4-1.6-1.5-1.6-1.4-1.5-1.5-1.5L162 54h1.2l.6.1h.6l.7.1.6.1.7.1h.6l.6.1.7.1.7.1h.7l.7.1h1.4l.7.1.5.8.6 1 .9 1.2.8 1.2 1.1 1.3 1.1 1.4 1.2 1.4 1.2 1.3 1.3 1.3 1.2 1.2 1.4 1.1 1.3.9 1.2.8 1.3.5 1.3.3h1.1z"></path><path fill="url(#c)" stroke-width=".254" d="M194.8 70.7l-1.5.1-1.4.2-1.3-.1-1.3-.2-1.4-.3-1.3-.5-1.2-.7-1.4-.9-1.3-.9-1.4-1.2-1.3-1.4-1.4-1.5-1.5-1.8-1.5-2-1.6-2.2-1.6-2.4h1l.9.1 1 .1.9.1.9.1 1 .1h2.1l1 .9.8 1 .9 1 .9 1 .8 1 .9 1.1.8.9.9 1.1.8 1 .9 1 .9 1 .9.9 1 .9 1 .8 1 .9 1.1.8z"></path><path fill="url(#d)" stroke-width=".254" d="M199.9 70.4l-1.1.6-1.3.2-1.2-.1-1.3-.5-1.3-.8-1.3-1.1-1.3-1.1-1.4-1.4-1.3-1.5-1.3-1.5-1.2-1.5-1.3-1.5-1.1-1.4-1.1-1.3-1.1-1.1-.9-.9 6.2.6.7.9.8.9.7 1 .7.9.7.9.7.9.7 1 .8.9.8.9.8.9.8.9 1 .9.9.8 1 .9 1.1.8 1.1.8z"></path><path fill="url(#e)" stroke-width=".254" d="M210.2 69.1l-1.8 1.1-1.7.8-1.7.4h-1.6l-1.6-.3-1.5-.6-1.5-.8-1.4-1-1.4-1.3-1.4-1.3-1.3-1.6-1.4-1.6-1.3-1.7-1.2-1.7-1.3-1.8-1.2-1.6 1.1.1.8.1h.6l.5.1.5.1h1.3l1 .1 1.1 1.5 1.1 1.5L196 61l1.2 1.2 1.2 1.1 1.2 1.1 1.2.9 1.2.8 1.1.7 1.2.7 1.1.4 1 .4 1.1.4.9.2 1 .1.8.1z"></path><path fill="url(#f)" stroke-width=".254" d="M215.6 68.7l-1.9.3-1.8.1-1.7-.1-1.7-.3-1.6-.3-1.6-.5-1.4-.7-1.4-.8-1.4-.9-1.3-1-1.3-1.1-1.2-1.2-1.2-1.3-1.1-1.4-1.1-1.4-1-1.5h1.1l1.3.1 1.2.2h1.3l1 .1.9.1h.6l.3.1.1.1.3.3.5.5.6.6.6.7.8.8.9.8 1 1 1.1.9 1.2 1 1.1.9 1.3 1 1.3.8 1.4.8 1.4.7 1.4.6z"></path><path fill="url(#g)" stroke-width=".254" d="M222.7 69.1l-1.5.3-1.5.1-1.6-.1-1.6-.3-1.6-.5-1.5-.7-1.5-.7-1.5-1-1.4-1-1.4-1-1.3-1.1-1.3-1.2-1.2-1.2-1.2-1.2-1.1-1.1-1-1.2h.7l.9.1h1.9l1 .1.9.1.8.1.6.1v.1l.2.3.6.5.8.6 1 .9 1.2.9 1.3 1 1.3 1 1.4 1 1.4 1.1 1.4.9 1.2.9 1.2.8 1.1.7.8.4.5.3z"></path><path fill="url(#h)" stroke-width=".254" d="M230.7 69.1l-1 .9-1.2.4H227l-1.7-.4-1.9-.7-1.9-1-2-1.1-2-1.3-2-1.4-1.8-1.4-1.8-1.4-1.5-1.2-1.3-1.1-1-.9-.7-.5-.3-.3.8.1h.8l.9.1.8.1 1 .1h.9l.9.1h1l1.1.7 1 .6 1.1.7 1 .7 1 .7 1 .7 1.1.7 1 .7 1 .8 1 .7 1 .7 1 .7 1.1.6 1 .6 1 .7 1.1.6z"></path><path fill="url(#i)" stroke-width=".254" d="M236.5 69.2l-1 .3-1 .2-1 .1-1-.2-1-.3-1-.4-1.1-.6-1.2-.7-1.3-.8-1.3-.9-1.5-1.1-1.6-1.1-1.8-1.2-1.9-1.3-2.1-1.4-2.3-1.5.9.1h2.1l1 .1h.9l.7.1.5.1h.1l.2.2.3.3.5.5.7.6.9.8 1 .9 1 .8 1.3 1 1.2.9 1.3.9 1.3.8 1.3.9 1.3.7 1.3.5 1.2.4 1.1.3z"></path><path fill="url(#j)" stroke-width=".254" d="M240.7 68.5l-1.3.6-1.4.2-1.6-.1-1.5-.4-1.7-.6-1.5-.8-1.7-.9-1.5-1-1.4-1.1-1.4-1.1-1.3-1-1.1-1.1-1-.9-.8-.7-.6-.5-.3-.4.9.1h.9l.9.1.8.1.9.1h.8l1 .1.9.1.7.6.8.7.6.6.8.7.8.8.7.7.8.7.9.7.8.6.8.6.9.6.8.5.9.5.9.4.9.3.9.2z"></path><path fill="url(#k)" stroke-width=".254" d="M245.9 66.9l-1.2.8-1.2.5-1.1.3h-1.2l-1.2-.2-1.1-.4-1.2-.5-1.1-.7-1.2-.7-1.1-1-1.1-.9-1.1-1-1.1-1-1.1-1-1-1-1.1-.9h.7l.6.1.8.1.8.1.9.1h.9l1 .1 1 .1.2.7.4.7.5.6.5.7.6.6.6.5.6.6.8.5.8.5.8.4.9.4.8.3 1 .2.9.2 1 .1 1 .1z"></path><path fill="url(#l)" stroke-width=".254" d="M250.5 66l-1 .4-1.1.3-1.1.2h-1.2l-1.2-.1-1.2-.1-1.3-.4-1.2-.3-1.2-.6-1.1-.5-1-.7-.9-.7-.8-.8-.7-.9-.5-1-.4-1 .7.1h.7l.8.1.7.1h.8l.8.1.9.1h1l.4.6.5.6.4.5.5.5.4.4.6.4.5.4.5.3.6.3.6.3.7.3.7.3.7.2.7.2.9.2.8.2z"></path><path fill="url(#m)" stroke-width=".254" d="M252.9 65.2l-.4.4-.5.2-.7.1h-.7l-.8-.1-.8-.1-1-.3-.9-.3-.9-.4-1-.5-.9-.5-.8-.6-.8-.6-.7-.7-.6-.7-.4-.8.5.1h.5l.5.1.6.1h.5l.5.1h.8v.2l.5.5.9.6 1.1.8 1.4.7 1.4.8 1.4.6 1.3.3z"></path><path fill="url(#n)" stroke-width=".254" d="M254.5 63.6l-.1.8-.3.5-.4.2-.7.2-.7-.2-.9-.2-.9-.4-.9-.5-.9-.5-.9-.6-.9-.5-.7-.6-.6-.4-.5-.4-.3-.2v-.1l4.5.5.4.2.5.3.7.4.8.3.8.4.8.3.7.3.5.2z"></path><path fill="url(#o)" stroke-width=".254" d="M249.3 61.2h1l.9.1.8.1h.7l.7.1h.8l.8.2.8.1-.1 1.1-.6.6h-.8l-1-.3-1.1-.6-1.1-.5-1-.6-.8-.3z"></path><path fill="url(#p)" stroke-width=".254" d="M249.5 60.6l1 .2.8.1.8.2.8.1.7.2.7.1.8.2.8.2.1-1.2-.5-.9-.8-.2-1.1-.1-1.2.2-1.2.3-1 .4-.7.2z"></path><path fill="url(#q)" stroke-width=".254" d="M188.9 36.9l-2.6-.9-2.4-.7-2.3-.2-2.2.2-2.1.4-1.9.7-1.8 1-1.8 1.1-1.8 1.3-1.7 1.4-1.7 1.5-1.6 1.5-1.6 1.4-1.7 1.4-1.6 1.4-1.7 1.2.6.1.7.1h.6l.6.2h.6l.7.1h.7l.6.1h.6l.7.1.7.1.7.1h.7l.7.1.7.1.7.1.6-.8.8-1 .8-1.1 1.1-1.2 1.1-1.3 1.2-1.3 1.4-1.3 1.3-1.2 1.5-1.2 1.4-1 1.5-.9 1.5-.8 1.4-.6 1.5-.3 1.4-.1 1.4.2z"></path><path fill="url(#r)" stroke-width=".254" d="M193.3 37.9l-1.5-.5-1.4-.3-1.3-.3-1.4-.1-1.4.1-1.4.3-1.3.4-1.4.7-1.5.8-1.4 1-1.5 1.3-1.6 1.4-1.7 1.7-1.7 1.9-1.8 2.2-1.9 2.4h1l1 .2h.8l.9.1.8.1.8.2 1 .1 1.2.2 1.1-.9.9-.9 1.1-1 .9-1 1-1 1-1 .9-1 1-.9 1-1 1.1-.8.9-.9 1.1-.9 1.1-.8 1.2-.6 1.1-.6 1.3-.6z"></path><path fill="url(#s)" stroke-width=".254" d="M198.1 39.2l-1.1-.9-1.2-.5-1.3-.1-1.4.3-1.4.6-1.5.8-1.5 1-1.5 1.3-1.5 1.3-1.5 1.4-1.5 1.4-1.4 1.5-1.3 1.3-1.2 1.2-1.1 1.1-1.1.9 6.4.7.8-.9.8-1 .7-.9.9-.9.8-1 .8-.9.9-1 .8-.9.9-.8.9-.9 1-.8 1.1-.8 1.1-.7 1.1-.7 1.3-.6 1.2-.5z"></path><path fill="url(#t)" stroke-width=".254" d="M207.7 43.3l-1.7-1.7-1.7-1.2-1.7-.8-1.6-.5-1.6-.1-1.6.3-1.6.6-1.5.7-1.5 1.1-1.5 1.2-1.5 1.4-1.4 1.5-1.4 1.6-1.4 1.7-1.4 1.7-1.4 1.6 1.1.1.9.1h.8l.7.1.7.2.7.1.9.1 1.1.2 1.2-1.6 1.1-1.4 1.3-1.3 1.1-1.1 1.3-.9 1.1-.9 1.1-.7 1.2-.5 1.1-.5 1-.4 1.2-.2 1-.3 1-.1 1-.1h1.9z"></path><path fill="url(#u)" stroke-width=".254" d="M214.5 44.8l-1.9-.7-1.8-.5-1.8-.3-1.7-.1h-1.7l-1.6.3-1.6.3-1.5.5-1.5.7-1.4.8-1.5.9-1.3 1.1-1.4 1.1-1.2 1.3-1.3 1.4-1.2 1.5 1.2.2 1.4.2 1.4.2 1.4.1 1.3.2 1 .1.8.1h.3l.1-.1.3-.3.4-.4.5-.5.6-.6.8-.7.9-.7 1-.9 1.1-.7 1.1-.8 1.3-.8 1.4-.7 1.4-.7 1.5-.6 1.6-.5 1.6-.4z"></path><path fill="url(#v)" stroke-width=".254" d="M223.1 45.9l-1.5-.6-1.6-.5-1.7-.2h-1.6l-1.7.2-1.7.3-1.6.6-1.7.6-1.6.8-1.6.8-1.5 1-1.5 1-1.3 1-1.4 1.1-1.2 1.1-1.1 1.1.8.1.9.1 1 .1 1.1.1 1.2.2.9.1h1.6v-.1l.2-.3.6-.4.9-.6 1-.6 1.3-.8 1.4-.8 1.4-.8 1.5-.8 1.5-.8 1.5-.8 1.4-.7 1.3-.6 1.1-.4 1-.3.7-.2z"></path><path fill="url(#w)" stroke-width=".254" d="M231.3 47.6l-.8-1.3-1.2-.8-1.6-.2H226l-1.9.4-2.1.6-2.2.9-2.2 1-2.2 1.1-2 1.1-2 1.2-1.7 1.1-1.5.9-1.1.7-.7.5-.4.2.8.2 1 .1 1 .1 1 .1 1.1.1 1.1.1 1.1.2 1 .1 1.1-.5 1.1-.5 1.1-.6 1-.6 1.1-.5 1-.6 1.1-.6 1.1-.6 1-.5 1.1-.6 1.1-.5 1-.5 1.1-.5 1.1-.4 1.1-.5 1.1-.4z"></path><path fill="url(#x)" stroke-width=".254" d="M241.7 50.4l-1.3-1-1.4-.5-1.5-.2h-1.7l-1.7.3-1.7.5-1.7.6-1.7.8-1.5.9-1.6.8-1.4 1-1.2.8-1.1.8-.9.7-.7.4-.3.3.9.1.9.1.8.2h.7l.8.1.8.1.9.1.9.1.8-.5.8-.5.9-.7.9-.6.9-.6.9-.6 1-.7.9-.6.9-.5 1-.5 1-.5.9-.3 1-.3 1-.2h.9l.9.1z"></path><path fill="url(#y)" stroke-width=".254" d="M237.9 48.7l-1-.7-1.1-.4-1-.3-1-.1-1 .1-1.2.2-1.2.4-1.3.5-1.4.6-1.4.7-1.6.9-1.8.9-1.9 1-2.1 1.1-2.3 1.1-2.5 1.2 1 .1 1 .1 1 .1 1.1.2.9.1.7.1.6.1.2-.1.1-.1.4-.3.5-.5.7-.5.9-.6 1.1-.7 1.1-.8 1.2-.7 1.3-.8 1.4-.8 1.4-.6 1.5-.6 1.4-.5 1.5-.3 1.4-.1h1.4z"></path><path fill="url(#z)" stroke-width=".254" d="M246.4 53.3l-1.1-1.1-1.1-.9-1.1-.6-1.1-.3-1.2-.1-1.2.1-1.3.3-1.2.4-1.3.7-1.2.6-1.3.8-1.3.8-1.3.9-1.2.8-1.2.9-1.2.8.6.1h.8l.9.2.9.1 1 .1 1.1.2.9.1 1 .1.4-.8.4-.6.5-.7.5-.5.6-.6.7-.4.7-.4.8-.3.8-.3.9-.3.8-.1 1-.1 1-.1h.9l1 .1 1.1.1z"></path><path fill="url(#A)" stroke-width=".254" d="M253.6 57.2l-.3-.5-.5-.4-.6-.4-.7-.2-.9-.2H247.7l-1 .2-1 .3-1 .3-.9.4-.9.5-.8.6-.7.6-.5.7.5.1.6.1.7.1.6.2h.6l.5.1h.4l.3-.1.5-.4 1-.5 1.2-.5 1.3-.4 1.5-.5 1.5-.2 1.5.1z"></path><path fill="url(#B)" stroke-width=".254" d="M255 59.6v-1l-.2-.7-.4-.4-.7-.3-.7-.2-.9.1-.9.1-1.1.3-1 .3-1 .4-.9.3-.8.4-.7.3-.6.2-.3.3h-.1l4.7.8.4-.1.6-.2.7-.2.8-.3.8-.1.9-.2h.7l.7.2z"></path><path fill="url(#C)" stroke-width=".254" d="M251.1 55.7l-.9-.8-1-.6-1.1-.5-1.2-.4-1.3-.2-1.2-.2h-1.3l-1.3.2-1.2.2-1.2.4-1.1.5-1.1.5-.9.8-.9.8-.6.9-.5 1 .7.1.7.1.8.1.8.1.8.1.9.1.9.1 1 .2.4-.6.4-.4.4-.4.6-.4.5-.4.7-.3.6-.3.7-.3.7-.2.8-.2.7-.1.7-.1h2.3l.7.2z"></path><path fill="url(#D)" stroke-width=".254" d="M43.7 27.8l-.1.2-.3.4-.4.8-.5.9-.6 1.1-.6 1.3-.5 1.4-.5 1.4-.3 1.4-.1 1.4v1.4l.3 1.3.7 1.2 1 1 1.4.8 1.8.6-.3-.9-.2-.9-.2-.9-.1-1.1-.1-1v-1.1l.1-1.1.1-1.1.1-1.1.1-1.1.2-1.1.2-1 .2-.9.2-.9.3-.9.2-.7-.3-.2h-.2l-.3-.1-.2-.1-.3-.1-.2-.1-.3-.1-.3-.1z"></path><path fill="url(#E)" stroke-width=".254" d="M45.7 28.6l-.8 3.2-.6 2.9-.3 2.5v2.2l.1 2 .3 1.6.5 1.4.5 1.2.7.9.8.7.7.6.8.4.8.3.7.1h1.2l-.3-.9-.4-.9-.3-1.1-.2-1-.2-1.2-.2-1.1-.2-1.2-.1-1.2-.1-1.3v-1.2l.1-1.3.1-1.2.2-1.3.2-1.2.3-1.2.4-1.2-.7-.3-.7-.2-.7-.2-.6-.2-.5-.2-.6-.2-.5-.1-.4-.1z"></path><path fill="url(#F)" stroke-width=".254" d="M50.4 30.1l-.3 1.1-.4 1.5-.2 1.6-.1 1.8-.1 2v2l.2 2 .3 1.9.4 1.8.5 1.7.8 1.4.9 1.2 1.1.9 1.3.4 1.4.1 1.7-.5-.6-1-.7-1.1-.5-1.2-.5-1.1-.3-1.2-.4-1.2-.2-1.2-.2-1.2-.2-1.3V38l.1-1.2.1-1.3.2-1.2.3-1.3.3-1.3-.6-.2-.7-.2-.7-.2-.7-.3-.7-.2-.5-.2-.6-.2-.4-.1z"></path><path fill="url(#G)" stroke-width=".254" d="M65.2 54.2l-1.5.1-1.6-.2-1.3-.6-1.2-.8-1.2-1.1-1-1.3-.8-1.5-.7-1.7-.6-1.8-.5-2-.3-1.9-.1-2v-2l.2-2 .3-1.9.5-1.8.7.2.6.3.7.1.7.3.7.2.8.2.7.3.7.2V36.1l.1 1.5v1.5l.1 1.6.1 1.6.1 1.7.2 1.6.3 1.6.2 1.4.3 1.4.4 1.3.5 1 .6.9.6.6.7.4z"></path><path fill="url(#H)" stroke-width=".254" d="M61.1 33.5l.6.3.6.2.5.1.6.1.5.2.6.2.6.2.5.2.1 1.2.1 1.2.1 1.4v4.5l.1 1.6v1.5l.2 1.5.1 1.5.3 1.4.3 1.3.5 1.2.5 1.2.7.9.8.7-1.7-.4-1.4-.5-1.2-.9-1-.9-.8-1.1-.6-1.3-.5-1.4-.3-1.4-.3-1.7-.2-1.7v-1.7l-.1-1.9v-1.8l-.1-1.9v-2l-.1-2z"></path><path fill="url(#I)" stroke-width=".254" d="M76.5 58.4l-2.3-.1-2-.5-1.6-.7-1.3-1-1.1-1.3-.8-1.5-.6-1.6-.4-1.8-.2-1.9-.2-1.9-.1-2v-5.7l-.1-1.8-.1-1.6.6.2.6.1.5.2.6.2.6.2.5.1.6.2.7.1-.1.2-.1.4-.1.7-.2.8-.1 1-.1 1.2-.1 1.3.1 1.5.1 1.6.3 1.8.6 1.8.6 1.8.9 2 1.2 2 1.4 2 1.7 2z"></path><path fill="url(#J)" stroke-width=".254" d="M84.5 60.9l-1.6.3-1.6-.1-1.5-.5-1.5-.9-1.5-1.1-1.4-1.3-1.2-1.6-1.2-1.8-1-2-.9-2.1-.7-2.2-.5-2.2-.2-2.3-.1-2.3.2-2.2.5-2.3 5.5 1.8v.9l-.1 1.1.1 1.2.1 1.4.2 1.5.3 1.6.2 1.6.5 1.7.5 1.7.7 1.6.7 1.6.9 1.6.9 1.5 1.1 1.4 1.2 1.3 1.4 1.1z"></path><path fill="url(#K)" stroke-width=".254" d="M75.7 38l.9.3 1.1.2 1.2.5 1.3.3 1.2.4 1.2.4 1.1.2.8.2.1 1.4.1 1.4.1 1.5.1 1.5.1 1.5.2 1.6.1 1.5.3 1.5.3 1.5.3 1.4.5 1.4.5 1.2.6 1.3.8 1 .8 1 1 .9-1.2.1H88l-1.2-.3-1.2-.5-1.3-.8-1.2-.9-1.1-1.2-1.2-1.4-1.1-1.6-.9-1.9-.9-2-.7-2.3-.6-2.5-.5-2.7-.3-3-.1-3.1z"></path><path fill="url(#L)" stroke-width=".254" d="M98 63.2l-2.6.1-2.2-.2-1.9-.6-1.5-1-1.3-1.2-1.1-1.5-.7-1.6-.6-1.9-.5-1.8-.3-2.1-.1-2-.2-1.9-.1-2-.1-1.8-.1-1.7-.2-1.5.8.1.7.2.7.2.6.2.7.2.6.2.8.2.9.2.2 1.6.1 1.5.2 1.5.2 1.5.2 1.4.2 1.4.3 1.4.3 1.3.4 1.3.5 1.3.6 1.2.6 1.2.8 1.2.9 1.2 1.1 1.1 1.1 1.1z"></path><path fill="url(#M)" stroke-width=".254" d="M105.1 64.5l-2.3.1-2.1-.3-1.8-.6-1.6-1-1.3-1.2-1.2-1.5-.9-1.7-.8-1.8-.7-1.8-.5-2-.5-1.9-.2-2-.3-1.9-.2-1.7-.2-1.7-.1-1.4.8.2.7.2.6.2.7.1.6.2.6.1.8.2.8.2.3 2.3.4 2.1.4 2 .4 1.9.5 1.6.5 1.7.6 1.4.6 1.3.5 1.2.7 1.1.7 1 .6.8.7.9.7.6.8.6.7.5z"></path><path fill="url(#N)" stroke-width=".254" d="M111.7 65.4l-2.2.1-2-.3-1.7-.6-1.6-1-1.4-1.2-1.2-1.4-1.1-1.6-.9-1.8-.8-1.8-.7-1.9-.5-1.9-.4-1.9-.5-1.8-.2-1.8-.3-1.6-.2-1.4.7.2.7.1.7.2.7.2.7.2.7.1.7.2.7.2.1 1.1.2 1.2.2 1.3.4 1.4.4 1.5.6 1.5.6 1.5.6 1.5.8 1.6.8 1.4.8 1.4.9 1.2.9 1.3.9 1 1 .9.9.7z"></path><path fill="url(#O)" stroke-width=".254" d="M119 66.7l-2.3.3-2.1-.3-1.9-.7-1.7-1.2-1.7-1.5-1.4-1.7-1.2-2-1.2-2-.9-2.2-.9-2.1-.7-2-.5-1.9-.4-1.6-.3-1.4-.2-.9v-.6l.9.1.8.2.8.3.9.1.8.3.7.1.8.2.7.1.3 1 .3 1.2.4 1.3.4 1.5.5 1.6.5 1.6.6 1.7.6 1.7.7 1.6.8 1.5.8 1.5.9 1.2.9 1.1 1 .9 1.1.7 1.2.3z"></path><path fill="url(#P)" stroke-width=".254" d="M124.3 66.4l-2.1.5h-1.8l-1.7-.4-1.6-.8-1.4-1.1-1.2-1.4-1.1-1.6-1-1.8-.8-1.8-.8-1.9-.5-2-.6-1.8-.5-1.8-.3-1.6-.4-1.4-.3-1.1.7.2h.6l.6.1.5.1.6.2.5.1.5.1.5.1.2 1.3.3 1.4.3 1.4.4 1.3.4 1.4.6 1.4.5 1.3.7 1.2.7 1.3.9 1.2.9 1.2.9 1 1.1 1.1 1.1.9 1.3.9 1.3.8z"></path><path fill="url(#Q)" stroke-width=".254" d="M131 67.5h-1.8l-1.7-.2-1.6-.4-1.6-.6-1.4-.8-1.5-1-1.3-1.2-1.3-1.3-1.1-1.4-1-1.6-1-1.7-.8-1.8-.7-2-.6-2-.5-2.1-.4-2.1.8.1.7.1.8.2.8.1.7.2.7.1.8.1.7.2.4 1.2.2 1.3.4 1.2.3 1.3.3 1.2.4 1.2.5 1.2.5 1.2.6 1.2.7 1.2.9 1.2 1 1.1 1.2 1.1 1.4 1.2 1.6 1.2 1.9 1.1z"></path><path fill="url(#R)" stroke-width=".254" d="M140.4 68.6l-2.3.1-2.2-.1-2-.3-2-.6-1.8-.8-1.7-1-1.5-1.1-1.4-1.4-1.3-1.5-1.2-1.6-1-1.8-.9-1.8-.8-2-.6-2-.5-2.1-.3-2.1.6.1.7.2.7.1.7.1.7.1.8.2.7.1.8.2.2 1.4.4 1.5.4 1.4.6 1.4.7 1.4.8 1.4.9 1.4.9 1.3 1.1 1.2 1.2 1.2 1.2 1.1 1.3 1.1 1.4.9 1.5.9 1.6.7 1.6.7z"></path><path fill="url(#S)" stroke-width=".254" d="M145.6 69.1l-2-.1-1.8-.3-1.9-.4-1.8-.7-1.7-.9-1.7-.9-1.5-1.1-1.5-1.3-1.3-1.4-1.3-1.5-1.1-1.7-1-1.7-.8-1.8-.7-1.8-.6-1.9-.3-2 .6.1h.6l.5.1.6.1h.5l.6.1.7.2.8.1.8 1.7.7 1.5.7 1.5.6 1.4.7 1.4.7 1.2.7 1.2.7 1.1.9 1.1.9 1 1 1 1.2 1 1.3.9 1.6 1 1.6.9 2 .9z"></path><path fill="url(#T)" stroke-width=".254" d="M154.9 69.7l-2.9.1-2.6-.1-2.4-.4-2.2-.6-2.1-.9-1.8-1.1-1.7-1.2-1.5-1.4-1.4-1.5L135 61l-1.1-1.7-1-1.8-1-1.8-.9-1.8-.8-1.9-.8-1.8.5.1.7.1.9.1.9.1.9.2.8.1.7.1.6.1.7 1.6.7 1.6.9 1.6.9 1.4 1 1.4 1 1.3 1.1 1.2 1.2 1.2 1.3 1.1 1.3 1.1 1.4 1 1.5 1 1.5.8 1.6.9 1.6.7 1.8.7z"></path><path fill="url(#U)" stroke-width=".254" d="M160.4 70.5h-1.5l-1.7-.3-1.7-.4-1.8-.6-1.8-.8-1.8-.9-1.9-1.1-1.8-1.2-1.7-1.4-1.7-1.5-1.6-1.6-1.5-1.8-1.3-1.8-1.2-1.9-1.1-2-.9-2.1.9.1.9.1.9.1.9.1h.8l.7.2.6.1.3.2 1.1.8 1 .8 1.1 1.1 1.1 1 1.1 1.2 1.2 1.2 1.2 1.3 1.1 1.3 1.2 1.3 1.2 1.3 1.3 1.3 1.2 1.3 1.3 1.2 1.3 1.2 1.3 1.2 1.3 1z"></path><path fill="url(#V)" stroke-width=".254" d="M168.9 70.5l-1.5 1-1.6.4h-1.5l-1.7-.4-1.6-.8-1.6-1.1-1.7-1.4-1.7-1.6-1.7-1.8-1.7-1.8-1.9-2-1.8-2-1.8-1.9-1.8-1.9-1.9-1.8-1.9-1.6h.7l.7.2h.9l.9.2.9.1 1 .2.8.1.8.2 1.4 1.3 1.5 1.3 1.4 1.4 1.4 1.4 1.3 1.4 1.4 1.4 1.3 1.4 1.3 1.3 1.3 1.3 1.3 1.2 1.2 1 1.2.9 1.2.8 1.2.7 1.2.6 1.1.3z"></path><path fill="url(#W)" stroke-width=".254" d="M175.5 71.3h-2.4l-2.2-.3-2.1-.5-2-.8-1.8-.9-1.7-1.2-1.6-1.3-1.5-1.4-1.5-1.5-1.5-1.6-1.4-1.5-1.4-1.7-1.5-1.6-1.5-1.6-1.6-1.4-1.6-1.4h.6l.7.1.8.1.9.1.9.1h.7l.6.1h.3l1 .2 1 .5 1 .6 1 .9 1.1 1.1 1.1 1.2 1.2 1.3 1.1 1.4 1.4 1.4 1.3 1.5 1.5 1.5 1.6 1.4 1.7 1.5 1.8 1.3 1.9 1.3 2.1 1.1z"></path><path fill="url(#X)" stroke-width=".254" d="M45.9 23.3v-.2l-.1-.7v-1l-.1-1.2-.1-1.4.1-1.6.1-1.6.1-1.7.4-1.6.4-1.5.6-1.4.9-1.1 1-.8 1.3-.4L52 7l1.8.5-.5.5-.6.7-.5.9-.5.9-.4 1.1-.4 1-.4 1.2-.4 1.2-.4 1.2-.3 1.2-.3 1.2-.3 1.2-.2 1.2-.2 1.1-.2 1-.2.9h-.3l-.2-.1-.3-.1-.2-.1-.2-.1-.3-.1-.3-.1-.3-.1z"></path><path fill="url(#Y)" stroke-width=".254" d="M48 24.2l.8-3.8.8-3.2.8-2.7.8-2.3.8-1.8.9-1.5.8-1 .7-.8.8-.5.7-.2.8-.1.6.1.7.2.6.3.5.4.5.3-.9.8-.8.9-.7.8-.7.9-.7.9-.6 1-.6 1-.5 1.1-.5 1.1-.5 1.1-.5 1.2-.4 1.2-.3 1.3-.4 1.3-.3 1.3-.3 1.4-.7-.1h-.5l-.4-.2-.2-.1h-.3l-.2-.1-.2-.1-.4-.1z"></path><path fill="url(#Z)" stroke-width=".254" d="M50.9 25.3l.2-1.4.3-1.6.5-1.7.6-1.9.7-1.9.9-1.9.9-1.8 1.1-1.7 1.1-1.5 1.1-1.3 1.3-1 1.2-.6 1.4-.2 1.3.2 1.3.7 1.3 1.4-1 .7-1 .9-.9.9-.9.9-.9.9-.7 1-.7 1.1-.7 1-.6 1.2-.5 1.2-.6 1.2-.4 1.3-.4 1.3-.3 1.4-.3 1.5-.2 1.5-.6-.2-.7-.2-.8-.3-.7-.2-.7-.3-.7-.3-.5-.2-.4-.1z"></path><path fill="url(#aa)" stroke-width=".254" d="M73.7 10l-1.4-.9-1.4-.5-1.5-.2-1.4.2-1.5.4-1.4.8-1.3 1-1.3 1.3-1.1 1.4-1.2 1.6-1 1.8-.9 1.9-.7 1.9-.6 2.1-.5 2.1-.2 2.2.7.2.7.1.7.3.7.2.8.3.7.2.7.2.8.1.5-1.3.5-1.5.5-1.4.6-1.5.5-1.5.7-1.5.6-1.5.7-1.4.7-1.3.7-1.2.8-1.2.9-1 .9-.9.9-.7 1-.5 1.1-.3z"></path><path fill="url(#ab)" stroke-width=".254" d="M80.1 11.7l-2.3-.9-1.9-.6h-1.8l-1.6.3-1.4.6-1.2 1-1.1 1.2-1 1.5-.8 1.6-.8 1.8-.8 1.9-.7 1.9-.6 1.9-.7 1.9-.7 1.8-.7 1.7.6.1.6.1.6.2.5.2.6.2.6.2.7.2.6.1.1-.2v-.6l.2-.7.2-1.1.2-1.2.5-1.4.4-1.5.7-1.6.7-1.6.9-1.5 1.1-1.6 1.2-1.5 1.5-1.4 1.6-1.1 1.9-1.1 2.1-.8z"></path><path fill="url(#ac)" stroke-width=".254" d="M88.3 13L87 12l-1.5-.7-1.7-.2-1.6.1-1.7.3-1.8.7-1.7 1-1.7 1.1-1.6 1.5-1.5 1.6-1.3 1.9-1.3 2-1 2.2-.8 2.3-.5 2.4-.3 2.6 6 1.5.3-1 .5-1.1.4-1.3.6-1.3.7-1.4.7-1.5.8-1.4.9-1.5 1-1.4L80 19l1.2-1.3 1.2-1.2 1.3-1.1 1.5-1 1.5-.8 1.6-.6z"></path><path fill="url(#ad)" stroke-width=".254" d="M72.9 32.5l.9.2 1.1.2 1.1.3 1.2.4 1.2.4 1.1.3 1 .3 1 .3-.2-.1.8-1.4.7-1.5.6-1.5.6-1.6.7-1.6.6-1.4.6-1.6.8-1.6.8-1.4.8-1.2 1-1.3 1-1.1.9-1 1.2-.8 1.2-.6 1.2-.5-1.1-.7-1.1-.5-1.2-.4L90 13l-1.4.1-1.4.4-1.5.6-1.5.9-1.5 1.1-1.5 1.4-1.5 1.7-1.5 2-1.4 2.3-1.4 2.6-1.3 3.1-1.2 3.3z"></path><path fill="url(#ae)" stroke-width=".254" d="M102.1 17.2l-2.4-1.3-2.1-.7-2-.2-1.8.3-1.6.7-1.5 1-1.3 1.4-1.2 1.6-1 1.8-1 1.9-.9 2.1-.8 2-.8 2-.8 1.9-.7 1.8-.7 1.5.8.2.7.1.7.2.6.1.7.2.7.2.7.1.9.2.8-1.6.7-1.6.7-1.5.7-1.5.6-1.4.8-1.3.8-1.4.7-1.2.9-1.2.9-1.1.9-1.1 1.1-1 1.2-.9 1.2-.8 1.4-.8 1.4-.7z"></path><path fill="url(#af)" stroke-width=".254" d="M109.4 19.3l-2.2-1.2-2-.5-2-.2-1.8.3-1.7.7-1.6 1.1-1.5 1.3-1.4 1.5-1.3 1.7-1.2 1.8-1.2 1.9-.9 1.9-1 2-.8 1.7-.7 1.7-.6 1.4.8.2.8.2.7.2.6.1.7.2.7.1.9.1.9.2 1-2.3 1.1-2.2 1-1.9 1-1.9.9-1.6.9-1.4.9-1.3.9-1.3.9-.9.9-.9 1-.8 1-.6.9-.5 1.1-.4 1.1-.2 1.2-.2z"></path><path fill="url(#ag)" stroke-width=".254" d="M114.8 20.9l-2.1-1-1.9-.5h-1.9l-1.8.4-1.6.7-1.6 1-1.5 1.2-1.4 1.5-1.2 1.6-1.1 1.8-1.2 1.8-.9 1.8-.9 1.8-.8 1.7-.7 1.6-.6 1.5.7.2.6.1.7.1.6.2.6.1.6.1.7.2.8.1.3-1.1.6-1.3.6-1.3.8-1.4.8-1.4 1-1.4 1-1.4 1.1-1.4 1.1-1.3 1.2-1.3 1.3-1.1 1.2-1 1.3-.9 1.2-.8 1.2-.6 1.2-.3z"></path><path fill="url(#ah)" stroke-width=".254" d="M121.4 22.6l-2.1-1.2-2.1-.5h-2.1l-2 .6-1.9.9-1.9 1.4-1.7 1.6-1.7 1.7-1.5 1.9-1.3 1.9-1.2 1.9-1 1.8-.8 1.5-.7 1.4-.3 1-.2.6.9.1.7.2.8.2.7.2.8.1.7.1.8.2.7.1.5-1 .6-1.2.7-1.4.8-1.4.9-1.6.9-1.5 1-1.5 1.1-1.6 1.1-1.5 1.1-1.3 1.3-1.2 1.2-1 1.3-.8 1.2-.6 1.4-.2 1.3.1z"></path><path fill="url(#ai)" stroke-width=".254" d="M126.2 24.4l-1.9-1.3-1.9-.7-1.7-.1-1.8.3-1.6.7-1.6 1-1.4 1.3-1.4 1.6-1.3 1.7-1.2 1.8-1.1 1.8-1.1 1.9-.9 1.7-.8 1.7-.6 1.4-.6 1.1.7.1.6.2.5.2.5.2.5.1.5.2.4.1.6.1.5-1.4.6-1.5.7-1.4.7-1.4.8-1.4.8-1.2.9-1.3 1-1.2 1.1-1.2 1.1-1.1 1.2-.9 1.3-.9 1.4-.7 1.4-.7 1.5-.4 1.6-.4z"></path><path fill="url(#aj)" stroke-width=".254" d="M132.3 25.8l-1.7-.6-1.7-.4-1.8-.2-1.6.2-1.7.3-1.6.5-1.5.9-1.6.9-1.5 1.2-1.4 1.4-1.3 1.5-1.3 1.7-1.2 1.9-1 2-1.1 2.2-.9 2.2.8.2.8.1.7.2.8.2.7.2.8.2.7.2.8.1.5-1.3.5-1.3.6-1.3.5-1.4.6-1.2.7-1.3.7-1.2.8-1.2 1-1.1 1.1-1.1 1.2-1 1.3-1 1.6-.8 1.6-.7 2-.7 2.1-.5z"></path><path fill="url(#ak)" stroke-width=".254" d="M140.9 27.8l-2.2-.9-2.2-.6-2.1-.3h-2l-1.9.3-1.9.5-1.8.8-1.6.9-1.6 1.3-1.5 1.4-1.3 1.5-1.3 1.8-1.2 1.9-.9 2.1-1 2.1-.8 2.2.7.1.7.2.8.1.8.1.8.1.8.1.8.1.8.2.5-1.7.5-1.5.7-1.5.8-1.5.9-1.3 1-1.3 1-1.2 1.2-1.1 1.2-1.1 1.4-.8 1.5-.9 1.5-.7 1.6-.5 1.7-.5 1.8-.2 1.8-.2z"></path><path fill="url(#al)" stroke-width=".254" d="M145.1 28.3l-1.9-.3-2-.2-1.9.1-1.9.2-1.8.5-1.8.6-1.7.7-1.6 1L129 32l-1.5 1.3-1.2 1.4-1.3 1.5-1 1.8-.9 1.9-.8 2-.6 2.1.7.1.6.1.6.1.6.1.6.1.5.1.7.2.8.1 1-1.7.9-1.6.8-1.5.8-1.4.8-1.3.8-1.2.7-1.2.9-1 .9-1 1.1-.9 1.1-.8 1.3-.8 1.5-.6 1.7-.6 1.9-.5 2.1-.5z"></path><path fill="url(#am)" stroke-width=".254" d="M154.4 29.5l-2.9-.7-2.8-.4-2.5-.1-2.3.2-2.1.5-2 .7-1.8.9-1.7 1.1-1.5 1.3-1.4 1.5-1.3 1.6-1.2 1.7-1.1 1.7-1.1 1.9-.9 1.8-.9 1.9.4.1.7.1.7.1.7.2.8.1.7.2.6.1h.5l.9-1.7.9-1.6 1.1-1.5 1.1-1.4 1.2-1.4 1.2-1.2 1.3-1.1 1.4-1 1.5-1 1.5-.8 1.6-.8 1.6-.8 1.7-.6 1.7-.6 1.8-.5 1.9-.5z"></path><path fill="url(#an)" stroke-width=".254" d="M159.9 30.1l-1.6-.3-1.7-.1-1.9.1-1.9.3-1.9.4-2 .6-2 .8-1.9.9-2 1.1-1.9 1.3-1.8 1.4-1.7 1.6-1.6 1.7-1.5 1.9-1.2 2-1.1 2.2.8.1.8.1.8.2.8.1.7.2.6.2h.8l1.1-.7 1.2-.8 1.2-1 1.3-1 1.3-1.1 1.3-1.2 1.4-1.2 1.4-1.2 1.5-1.2 1.4-1.2 1.5-1.2 1.5-1.2 1.6-1.1 1.5-1 1.7-.9 1.5-.8z"></path><path fill="url(#ao)" stroke-width=".254" d="M167.7 32.3l-1.5-1.5-1.6-.8-1.6-.4-1.7.1-1.7.5-1.9.9-1.8 1.2-2 1.3-2 1.6-2 1.7-2.1 1.8-2 1.8-2.1 1.8-2.1 1.7-2.1 1.6-2.1 1.4.6.1.8.1h.9l1 .1.9.1h1.9l.8-.1 1.5-1.1 1.6-1.2 1.5-1.3 1.4-1.2 1.4-1.3L153 40l1.3-1.2 1.4-1.2 1.4-1 1.3-1 1.4-.9 1.5-.8 1.5-.6 1.6-.5 1.6-.3 1.7-.2z"></path><path fill="url(#ap)" stroke-width=".254" d="M173.5 33l-2.4-.6-2.3-.2-2.2.1-2 .4-1.9.7-1.9.9-1.8 1.1-1.7 1.2-1.7 1.4-1.7 1.4-1.7 1.5-1.6 1.6-1.7 1.4-1.7 1.5-1.8 1.2-1.8 1.3h.6l.7.1.9.2h.9l.8.1.8.2h.6l.3.1h1.1l1-.3 1.1-.6 1.2-.7 1.2-.9L156 45l1.4-1.3 1.4-1.3 1.4-1.3 1.6-1.4 1.7-1.3 1.7-1.3 2-1.2 1.9-1.2 2.1-.9 2.3-.8z"></path><path fill="url(#aq)" stroke-width=".254" d="M180.8 35l-2.1-1.2-2.3-.5h-2.2l-2.3.5-2.2.8-2.3 1.3-2.2 1.4-2.2 1.6-2 1.7-2 1.8-1.9 1.6-1.8 1.5-1.5 1.3-1.5 1-1.3.6-1.1.2 1 .1.9.2 1.2.1 1.1.2 1.2.1 1.1.2 1.2.1h.9l1.7-1.2 1.4-1.2 1.4-1.1 1.2-1.2 1.2-1.1 1.1-1.1 1.2-1 1.1-1 1.1-.9 1.2-.9 1.3-.8 1.4-.8 1.5-.7 1.6-.6 1.9-.5 2-.5z"></path><g stroke-width=".254"><path fill="url(#ar)" d="M20.7 11.1l-.2-.5-.3-.7-.2-.6-.2-.7-.2-.7-.1-.7-.1-.7-.1-.8-.1-.7V2.8l.1-.7.1-.7.2-.7.2-.6-1 1.2-.7 1.3-.5 1.3-.3 1.4-.1 1.4v1.4l.2 1.4.3 1.4.3 1.3.5 1.4.5 1.3.5 1.4.6 1.2.5 1.3.6 1.2.5 1.2-.1-.3-.1-.4v-.9l-.1-.7V16.9l-.1-.8v-1.6l-.1-.7v-.7l-.2-.7-.1-.7-.2-.6z" transform="translate(19)"></path><path fill="url(#as)" d="M3 35.3l1.1-.6 1.1-.7 1.1-.7 1-.6 1-.6 1-.6.9-.6 1-.6.9-.6 1-.6.9-.7 1-.5.9-.6 1-.5 1.1-.6 1-.6-.9.9-.9 1-1 .9-.9.9-1 .9-1 .8-1 .8-1 .8-1 .7-1.1.6-1 .5-1 .4-1 .4-1.1.1-1 .1-1.1-.1z" transform="translate(19)"></path><path fill="url(#at)" d="M11.7 12l.8.5.7.5.8.5.7.6.7.5.6.6.7.6.6.6.6.6.6.7.6.6.5.7.6.6.5.7.5.7.5.7-.2-.7-.3-.8-.3-.8-.3-.8-.4-.8-.4-.8-.4-.7-.6-.8-.5-.7-.8-.6-.7-.6-.8-.5-1-.4-.9-.3-1.2-.3-1.2-.1z" transform="translate(19)"></path><path fill="url(#au)" d="M20.3 5l.3 1.2.1 1.2.3 1.1.2 1.1.1 1.1.1 1 .2 1.1.1 1 .2 1.1.1 1 .1 1 .2 1.1.2 1 .2 1.1.2 1 .2 1.1.2-1.3.1-1.2.2-1.3.1-1.3v-1.2l.1-1.2-.1-1.2v-1.2l-.2-1.2-.1-1-.3-1.1-.4-.9-.4-.9-.6-.8-.6-.7-.8-.7z" transform="translate(19)"></path><path fill="url(#av)" d="M14.1 3.1l-1 1-.7 1.1-.3 1.2v1.2l.2 1.2.5 1.3.6 1.3.8 1.3.8 1.2 1 1.2 1 1.2 1 1 .9 1.1.8.8.7.9.6.6-.1-1.8-.3-1.5-.3-1.3-.4-1.1-.5-1-.6-.9-.6-.8-.6-.8-.6-.7-.6-.8-.6-.8-.5-.9-.4-1.1-.4-1.1-.3-1.4-.1-1.6z" transform="translate(19)"></path><path fill="url(#aw)" d="M21.6 21.7v-2.3l.1-1.2V17l.1-1.1.1-1.1.1-1.1.1-1 .2-1.1.2-1.1.3-1.1.2-1 .3-1 .4-1.1.4-1 .4-1.1-1.7 1.6-1.4 1.6-.9 1.5-.7 1.4-.5 1.3-.2 1.2-.1 1.3.1 1.1.3 1 .3 1 .4.9.4.8.4.9.3.7.3.7.1.5z" transform="translate(19)"></path><path fill="url(#ax)" d="M4.5 25.8l.9.1 1 .2.9.1.9.2h1l.9.1h1.8l.9-.1h.9l.9-.1.9-.1h1l.8-.1 1-.2.8-.1-.7.4-.8.3-.8.3-.8.3-.9.3-.9.2-.9.3-.9.1H9.5l-1-.2-1-.3-1-.4-1-.6-1-.7z" transform="translate(19)"></path><path fill="url(#ay)" d="M9.9 30.5l-.7.1-.6.1-.7.2-.7.2-.7.3-.7.2-.6.3-.7.3-.7.4-.6.4-.6.4-.6.4-.5.5-.5.4-.4.5-.5.5.5-1.4.6-1.2.7-1 1-1 1-.8 1.2-.8 1.3-.6 1.3-.6 1.4-.4 1.4-.5L12 27l1.4-.3 1.5-.3 1.4-.3 1.3-.2 1.2-.3-.6.2-.9.5-1 .7-1.3.7-1.3.9-1.3.7-1.3.7-1.2.5z" transform="translate(19)"></path><path fill="url(#az)" d="M7.3 40.9l-.6-1.3-.1-1.3.1-1.3.5-1.2.7-1.1.9-1.1 1.1-1 1.3-.9 1.2-1 1.4-.8 1.4-.8 1.3-.7 1.2-.7 1.2-.5 1-.6.7-.4-.8 1.7-.8 1.4-.9 1.1-.8 1-.8.7-.9.7-.9.5-.9.6-.8.5-.9.6-.9.6-.8.7-.8.8-.8 1.1-.8 1.2-.7 1.5z" transform="translate(19)"></path><path fill="url(#aA)" d="M21.9 26.6l-.6 1-.7 1-.6.9-.6 1-.5.9-.5 1-.5.9-.5 1-.5 1-.4 1-.4.9-.3 1-.3 1-.3 1-.3 1.1-.2 1.1-.6-2.2-.3-2v-1.7L14 35l.3-1.3.5-1.2.7-1 .7-.8.8-.7.8-.7.9-.5.8-.5.7-.4.7-.4.6-.5.4-.4z" transform="translate(19)"></path></g></g></svg>